<?xml version="1.0" standalone="no"?>
<!DOCTYPE svg PUBLIC "-//W3C//DTD SVG 1.1//EN" "http://www.w3.org/Graphics/SVG/1.1/DTD/svg11.dtd" >
<svg xmlns="http://www.w3.org/2000/svg">
<metadata>
This is a custom SVG webfont generated by Font Squirrel.
Designer    : La Tipomatika (Digital Type Foundry)
Foundry     : La Tipomatika
</metadata>
<defs>
<font id="webfontS4Q5tZaA" horiz-adv-x="421" >
<font-face units-per-em="1000" ascent="800" descent="-200" />
<missing-glyph horiz-adv-x="257" />
<glyph unicode=" "  horiz-adv-x="257" />
<glyph unicode="&#x09;" horiz-adv-x="257" />
<glyph unicode="&#xa0;" horiz-adv-x="257" />
<glyph unicode="!" horiz-adv-x="176" d="M107 15q-6 -24 -28 -24q-10 0 -15.5 7t-3.5 17q1 10 10 16.5t19 6.5q20 0 18 -23zM84 99l125 592h36l-125 -592h-36z" />
<glyph unicode="&#x22;" horiz-adv-x="217" d="M165 554l18 137h48l-6 -63l-55 -80zM240 554l18 137h48l-6 -63l-55 -80z" />
<glyph unicode="#" horiz-adv-x="714" d="M79 221l46 44h106l82 143h-194l45 44h175l111 192h45l-110 -192h240l111 192h45l-110 -192h116l-45 -44h-97l-83 -143h186l-46 -44h-166l-126 -221h-46l127 221h-241l-126 -221h-46l127 221h-126zM359 408l-83 -143h241l82 143h-240z" />
<glyph unicode="$" horiz-adv-x="466" d="M289 366l61 286q-58 -11 -104.5 -50t-56.5 -89q-11 -52 17 -93t83 -54zM321 318l-60 -283q58 8 105.5 45.5t58.5 89.5q11 53 -18.5 95t-85.5 53zM368 737h42l-9 -43q106 0 158 -77l-40 -27q-41 65 -126 65l-63 -296q75 -15 114.5 -67t25.5 -119q-15 -70 -77 -120.5 t-141 -59.5l-13 -59h-42l13 57q-4 1 -11 1q-51 5 -88.5 30t-55.5 63l39 27q15 -33 48.5 -56t76.5 -23l61 290q-75 14 -113 66t-23 120q15 71 75 121.5t140 61.5z" />
<glyph unicode="&#x26;" horiz-adv-x="597" d="M248 0q-88 0 -135.5 55.5t-31.5 132.5q26 120 198 193l29 12l-14 21q-35 50 -43.5 81t-1.5 61q12 55 64.5 97t120.5 42q63 0 96 -38.5t22 -93.5q-18 -87 -158 -156l-25 -12l122 -206l20 28q33 45 50 85l47 -11q-42 -82 -89 -134l-6 -20v-3q13 -30 21 -42.5t29 -33.5 l-11 -51q-7 5 -14 11l-10 12q-5 4 -12 14l-8 12q-3 4 -12 17l-10 16l-11 18l-20 -18q-98 -91 -207 -89zM503 561q9 44 -13 74t-67 30q-42 0 -79 -29t-45 -71q-9 -45 20 -88l38 -58l16 8q65 34 93 63.5t37 70.5zM320 370l-18 -10q-148 -77 -166 -167q-13 -59 20.5 -108 t98.5 -49q45 -1 97.5 26.5t89.5 69.5l10 12z" />
<glyph unicode="'" horiz-adv-x="121" d="M187 623l6 63l49 5l-6 -63l-91 -78l-4 6z" />
<glyph unicode="(" horiz-adv-x="260" d="M306 695l9 -49q-48 -47 -91 -143.5t-68 -213.5q-27 -131 -22.5 -232t38.5 -142l-33 -42q-42 52 -51 163t20 253q28 132 82.5 242.5t115.5 163.5z" />
<glyph unicode=")" horiz-adv-x="246" d="M209 646l29 49q38 -54 46 -162.5t-20 -243.5q-29 -138 -86 -251t-121 -165l-17 42q52 41 100 142.5t76 231.5q25 118 23 214t-30 143z" />
<glyph unicode="*" horiz-adv-x="471" d="M366 510l-26 -122h-42l26 121l-104 -85l-24 29l104 87h-120l9 41h121l-68 86l36 30l67 -86l26 122h42l-26 -122l105 86l23 -29l-104 -86h122l-9 -42h-122l68 -87l-35 -29z" />
<glyph unicode="+" horiz-adv-x="452" d="M307 273l-33 -152h-42l33 152h-151l8 42h151l33 151h42l-33 -151h152l-8 -42h-152z" />
<glyph unicode="," horiz-adv-x="173" d="M78 0l13 64h48l-13 -64l-97 -69l-4 6z" />
<glyph unicode="-" d="M445 273h-345l8 42h345z" />
<glyph unicode="." horiz-adv-x="145" d="M43 0l13 64h64l-13 -64h-64z" />
<glyph unicode="/" horiz-adv-x="378" d="M489 691l-398 -691h-46l399 691h45z" />
<glyph unicode="0" horiz-adv-x="586" d="M158 344q-28 -129 15.5 -220t130.5 -91q88 0 168.5 90.5t108.5 220.5q27 129 -15.5 219t-130.5 90q-87 0 -168.5 -90.5t-108.5 -218.5zM116 344q31 145 127.5 248t200.5 103q105 0 157 -102.5t21 -248.5q-32 -146 -127 -249.5t-200 -103.5q-104 0 -157 104t-22 249z" />
<glyph unicode="1" horiz-adv-x="263" d="M185 558l-24 29l148 104h42l-146 -691h-42l135 637z" />
<glyph unicode="2" horiz-adv-x="475" d="M446 337l-325 -296h321l-8 -41h-377l8 41l361 326q53 48 68 114q15 73 -25.5 122.5t-114.5 49.5q-70 0 -132 -49l-24 30q81 61 165 61q90 0 141 -63t32 -151q-18 -83 -90 -144z" />
<glyph unicode="3" horiz-adv-x="431" d="M39 60l35 29q40 -59 121 -59q70 0 129 45t72 108q13 57 -23 100t-100 49h-93l9 42h93q67 4 121 44t66 95q12 59 -28.5 100t-109.5 41q-87 0 -148 -55l-23 30q75 66 179 66q88 0 139.5 -53t35.5 -129q-12 -52 -54 -95.5t-99 -65.5q47 -24 68 -69.5t9 -99.5 q-17 -81 -90.5 -137.5t-161.5 -56.5q-48 0 -86.5 19.5t-60.5 51.5z" />
<glyph unicode="4" horiz-adv-x="473" d="M345 254h-254l9 42h2l312 395l32 -20l-297 -375h205l33 154h42l-33 -154h99l-9 -42h-99l-53 -254h-42z" />
<glyph unicode="5" horiz-adv-x="504" d="M166 352h-42l96 339h369l-9 -42h-327l-71 -224q77 70 171 70q93 0 142 -72t27 -174q-22 -103 -101.5 -176t-172.5 -73q-53 0 -94 26.5t-62 71.5l35 29q15 -40 49 -62.5t80 -22.5q75 0 140.5 60.5t83.5 146.5q19 86 -21 145.5t-115 59.5q-51 0 -99 -28t-79 -74z" />
<glyph unicode="6" horiz-adv-x="506" d="M517 207q0 -1 -0.5 -4t-0.5 -5q-19 -87 -92.5 -146.5t-160.5 -59.5q-83 0 -130.5 57.5t-33.5 141.5l1 3q5 45 30 160q20 94 47 163q31 75 99.5 126t144.5 53q113 0 161 -87l-48 -26q-16 33 -48 52t-72 19q-62 0 -119.5 -43t-82.5 -107q-26 -64 -48 -162q-1 -5 -2.5 -15 t-2.5 -15q74 90 186 95q88 0 138.5 -57t33.5 -143zM476 205q12 68 -26.5 114.5t-107.5 46.5t-128 -51t-73 -120q-14 -67 25 -115t107 -48t127.5 48.5t73.5 115.5q0 2 1 5t1 4z" />
<glyph unicode="7" horiz-adv-x="443" d="M45 0l439 649h-280l9 42h350l-468 -691h-50z" />
<glyph unicode="8" horiz-adv-x="459" d="M73 191q12 59 53.5 107.5t97.5 74.5q-36 22 -52.5 62t-6.5 87q16 71 78.5 122t135.5 51q75 0 117 -51t26 -122q-10 -48 -42.5 -87.5t-79.5 -61.5q47 -25 67 -73.5t7 -108.5q-17 -83 -88.5 -141.5t-155.5 -58.5q-82 0 -128 59t-29 141zM207 522q-11 -53 21 -91.5t87 -38.5 q57 0 105 38.5t59 91.5q12 55 -20 93t-89 38q-56 0 -103.5 -38t-59.5 -93zM115 191q-14 -64 23 -111t101 -47q66 0 122.5 47t70.5 111q14 66 -22.5 113t-103.5 47q-64 0 -120.5 -47t-70.5 -113z" />
<glyph unicode="9" horiz-adv-x="489" d="M141 481q0 1 0.5 3.5t0.5 3.5q18 86 92 147t160 61t134 -58.5t34 -142.5l-1 -3q-6 -47 -33 -168q-18 -88 -44 -153q-31 -78 -103.5 -128t-153.5 -50q-48 0 -88.5 22.5t-62.5 59.5l48 33q37 -72 119 -72q66 0 122.5 41t83.5 105q27 73 45 158q4 22 7 34q-81 -91 -196 -91 q-83 0 -131.5 57.5t-32.5 140.5zM181 483q-11 -66 27.5 -112.5t104.5 -46.5q71 0 131 48.5t75 118.5q14 65 -26 113.5t-107 48.5q-70 0 -130 -50.5t-75 -119.5z" />
<glyph unicode=":" horiz-adv-x="182" d="M61 0l13 64h64l-13 -64h-64zM153 436l14 64h64l-14 -64h-64z" />
<glyph unicode=";" horiz-adv-x="169" d="M67 0l13 64h48l-13 -64l-97 -69l-4 6zM153 436l14 64h64l-14 -64h-64z" />
<glyph unicode="&#x3c;" horiz-adv-x="330" d="M81 248l296 246l24 -29l-261 -217l170 -212l-36 -31z" />
<glyph unicode="=" horiz-adv-x="440" d="M153 394l10 44h335l-10 -44h-335zM112 200l9 44h335l-9 -44h-335z" />
<glyph unicode="&#x3e;" horiz-adv-x="336" d="M175 494l190 -246l-295 -243l-24 31l260 212l-169 217z" />
<glyph unicode="?" horiz-adv-x="410" d="M232 0h-44l-23 321l8 41h94q59 1 108 43t62 101q13 62 -19.5 105t-90.5 43q-79 0 -137 -72l-23 29q33 38 77.5 61t90.5 23q76 0 118 -55.5t25 -133.5q-16 -75 -80.5 -130t-138.5 -55h-53zM186 -96q2 11 12 18.5t21 7.5q25 0 20 -26q-2 -12 -11 -20.5t-21 -8.5 q-11 0 -17 8.5t-4 20.5z" />
<glyph unicode="@" horiz-adv-x="754" d="M550 185q23 0 65 29.5t71 70.5q16 22 32 62.5t22 67.5q20 95 -37.5 162t-169.5 67q-128 0 -231.5 -89t-132.5 -223q-28 -131 38 -205t211 -74q86 0 157.5 30t113.5 78l2 2h63l-7 -9q-49 -65 -139 -109t-200 -44q-163 0 -243 84.5t-47 240.5q33 159 153 264t276 105 q125 0 197.5 -76.5t45.5 -204.5q-20 -95 -95.5 -179t-162.5 -94q-58 3 -67 30q-42 -33 -91 -33q-53 0 -82 38t-18 92q12 55 58 92t101 37h80l2 12l-3 -14q25 114 -22 114q-42 0 -71 -10l-6 -1l-1 44l5 1q38 11 82 11h1q82 -3 56 -150l4 13q-19 -79 -34 -151q-1 -7 -6 -22 t-6 -23t0 -17.5t10 -14t26 -4.5zM491 268l19 89h-86q-39 0 -72 -25t-42 -64q-8 -38 13 -64t59 -26q37 0 69.5 26.5t39.5 63.5z" />
<glyph unicode="A" horiz-adv-x="596" d="M267 329h213l-45 288zM32 0l401 691h35l109 -691h-44l-46 287h-243l-168 -287h-44z" />
<glyph unicode="B" horiz-adv-x="512" d="M275 2l-18 -2h-203l146 691h42h179q75 -1 118 -51.5t29 -118.5q-10 -50 -45.5 -91t-86.5 -64q47 -22 68 -68t9 -102q-17 -79 -86 -136t-152 -58zM413 651h-18h-161l-56 -262h179q60 2 109 39.5t60 92.5q11 51 -22 89t-91 41zM265 42h18q65 3 120 48t68 106q13 59 -23 103 t-100 48h-179l-65 -305h161z" />
<glyph unicode="C" horiz-adv-x="590" d="M685 599l-35 -31l1 3q-61 82 -169 82q-111 0 -210 -90t-126 -218t31.5 -219.5t173.5 -91.5q102 0 201 81l22 -28q-112 -96 -232 -96q-125 0 -197 105t-42 249q30 141 144 245.5t244 104.5q61 0 111.5 -25.5t82.5 -70.5z" />
<glyph unicode="D" horiz-adv-x="575" d="M430 649h-213l-129 -607h215l1 2q82 2 158.5 90.5t102.5 212.5q26 123 -13 212t-122 90zM38 0l146 691h42h213q100 -1 149 -101.5t19 -242.5t-120.5 -242.5t-191.5 -102.5v-2h-257z" />
<glyph unicode="E" horiz-adv-x="485" d="M474 389l-9 -42h-305l-65 -305h357l-8 -42h-399l146 691h399l-8 -40h-357l-56 -262h305z" />
<glyph unicode="F" horiz-adv-x="487" d="M478 389l-9 -42h-305l-73 -347h-42l146 691h399l-8 -39h-357l-56 -263h305z" />
<glyph unicode="G" horiz-adv-x="604" d="M575 88v-3q-112 -94 -235 -94q-86 0 -148.5 47t-88 128t-5.5 176q31 146 146 249.5t245 103.5q125 0 195 -96l-34 -29q-63 82 -170 82q-114 0 -213 -90.5t-127 -219.5q-27 -128 34 -219.5t174 -91.5q99 0 188 71l42 198h-191l9 40h233z" />
<glyph unicode="H" horiz-adv-x="558" d="M546 347h-381l-73 -347h-42l146 691h42l-64 -302h381l64 302h42l-146 -691h-42z" />
<glyph unicode="I" horiz-adv-x="138" d="M238 691l-146 -691h-42l146 691h42z" />
<glyph unicode="J" horiz-adv-x="305" d="M391 691l-111 -523q-15 -72 -64.5 -124.5t-101.5 -52.5q-45 0 -72 42l33 29q19 -29 48 -29q36 0 68.5 38t45.5 95l111 525h43z" />
<glyph unicode="K" horiz-adv-x="583" d="M191 691h42l-80 -376l402 376h57l-321 -300l251 -391h-54l-231 359l-117 -109l-53 -250h-42z" />
<glyph unicode="L" horiz-adv-x="453" d="M233 691l-138 -649h337l-8 -42h-379l146 691h42z" />
<glyph unicode="M" horiz-adv-x="623" d="M370 305l306 386h43l-146 -691h-43l129 610l-289 -365h-26l-138 365l-129 -610h-42l146 691h42z" />
<glyph unicode="N" horiz-adv-x="537" d="M194 691h41l229 -607l129 607h42l-146 -691h-42l-229 610l-129 -610h-41z" />
<glyph unicode="O" horiz-adv-x="690" d="M652 570q-57 82 -170 82t-211 -89.5t-125 -217.5q-28 -130 31.5 -220.5t173.5 -90.5q116 0 214 90t126 221q29 136 -39 225zM580 88q-110 -97 -238 -97t-199.5 102.5t-39.5 251.5q31 145 144.5 247.5t243.5 102.5q134 0 202.5 -101.5t37.5 -248.5q-33 -156 -151 -257z " />
<glyph unicode="P" horiz-adv-x="480" d="M326 346h-157l-73 -346h-42l146 691h199q81 0 127.5 -50t31.5 -120q-16 -73 -83.5 -124t-148.5 -51zM388 651h-154l-56 -263h157q63 0 115.5 38.5t64.5 94.5q11 53 -25.5 91.5t-98.5 38.5h-3z" />
<glyph unicode="Q" horiz-adv-x="665" d="M622 581q-57 78 -154 78q-103 0 -196 -85t-118 -206q-25 -117 30 -201.5t158 -87.5q2 18 -8.5 30.5t-29.5 11.5l8 36q34 1 53.5 -20.5t17.5 -55.5q94 18 173 99.5t102 187.5q28 129 -36 213zM555 133q-81 -73 -180 -87q-3 -32 6 -53t25 -21q21 0 35 23l23 -24 q-36 -38 -67 -38q-30 0 -47 31.5t-14 77.5q-117 3 -183 97.5t-37 228.5q29 138 135 232.5t224 94.5q119 0 185.5 -95t37.5 -232q-15 -68 -53 -129t-90 -106z" />
<glyph unicode="R" horiz-adv-x="474" d="M161 347h-2l-73 -347h-42l146 691h198q82 0 128.5 -50t31.5 -121q-15 -72 -83 -122.5t-150 -50.5h-99l232 -347h-54zM378 652h-154l-56 -263h156q63 0 116.5 38t65.5 93q11 54 -26 93t-100 39h-2z" />
<glyph unicode="S" horiz-adv-x="485" d="M64 85l39 27q36 -79 141 -79q65 0 121 39.5t68 96.5q13 57 -21 100t-97 51h-3q-84 8 -129.5 62.5t-29.5 127.5q16 78 89.5 131t162.5 53q111 0 163 -77l-40 -27q-41 65 -131 65q-67 0 -126.5 -41.5t-72.5 -99.5t24 -102.5t103 -50.5q81 -11 125 -64.5t29 -123.5 q-16 -76 -87.5 -129t-158.5 -53q-59 0 -104 26t-65 68z" />
<glyph unicode="T" horiz-adv-x="575" d="M674 651h-225l-138 -651h-42l138 651h-226l8 40h268h225z" />
<glyph unicode="U" horiz-adv-x="598" d="M235 691l-110 -518q-8 -58 45 -98.5t139 -40.5q83 0 152 40.5t85 98.5l110 518h42l-110 -518q-19 -75 -103.5 -128.5t-184.5 -53.5q-103 0 -167 53.5t-53 128.5l110 518h45z" />
<glyph unicode="V" horiz-adv-x="639" d="M299 0l-109 691h44l100 -629l366 629h44l-401 -691h-44z" />
<glyph unicode="W" horiz-adv-x="915" d="M1010 691l-400 -691h-46l-47 295l-170 -295h-45l-109 691h44l101 -629l170 295l-52 334h44l43 -275l57 -354l365 629h45z" />
<glyph unicode="X" horiz-adv-x="541" d="M320 354l-126 337h47l116 -302l242 302h49l-275 -344l129 -347h-49l-118 312l-249 -312h-47z" />
<glyph unicode="Y" horiz-adv-x="681" d="M735 691h56l-363 -378l-66 -313h-43l66 313l-203 378h57l175 -338z" />
<glyph unicode="Z" horiz-adv-x="548" d="M660 691l-541 -649h368l-8 -42h-415h-29l542 649h-376l9 42h415h35z" />
<glyph unicode="[" horiz-adv-x="210" d="M159 47q0 -5 16 -5l-8 -42q-20 0 -37 13.5t-14 33.5l52 242q4 19 -6 32t-29 13h-20l9 42h20q19 0 34.5 13t19.5 32l48 225v2l1 3q7 18 26.5 29t41.5 11l-9 -43q-17 0 -17 -2l-51 -237q-7 -13 -21.5 -23t-28.5 -10l-9 -42q15 0 25.5 -8.5t11.5 -23.5z" />
<glyph unicode="\" horiz-adv-x="371" d="M297 0l-106 691h45l107 -691h-46z" />
<glyph unicode="]" horiz-adv-x="183" d="M58 47l55 255q13 32 46 32l11 42q-16 0 -25 9.5t-10 23.5l51 237q-3 2 -20 2l9 43q25 0 39 -11t13 -29l1 -3v-2l-48 -225q-4 -19 4.5 -32t26.5 -13h21l-9 -42h-21q-18 0 -32 -12.5t-18 -32.5l-52 -242q-4 -19 -26.5 -33t-44.5 -14l8 42q13 0 21 5z" />
<glyph unicode="^" horiz-adv-x="551" d="M127 448l297 243l192 -244l-38 -30l-166 215l-263 -215z" />
<glyph unicode="_" horiz-adv-x="513" d="M462 0h-420l8 42h420z" />
<glyph unicode="`" horiz-adv-x="204" d="M258 553l-90 87h66l47 -87h-23z" />
<glyph unicode="a" horiz-adv-x="406" d="M323 0l8 40q-61 -50 -132 -50q-66 0 -104 44.5t-25 106.5q14 66 72.5 109t128.5 43h114l4 22q14 62 -6.5 105t-67.5 44h-1q-65 0 -119 -15l-2 40q63 17 130 17h1q58 -1 90.5 -50.5t21.5 -120.5l-2 -10q-21 -86 -38 -169q-33 -148 -26 -156h-47zM352 141l24 111h-114 q-53 0 -96 -31t-53 -80q-9 -45 19 -76.5t77 -31.5q50 0 92 31.5t51 76.5z" />
<glyph unicode="b" horiz-adv-x="523" d="M188 410l-68 -316q-5 -24 36 -42.5t102 -19.5q82 2 153.5 65.5t90.5 151.5q19 87 -26 151t-126 64q-58 0 -104.5 -15.5t-57.5 -38.5zM107 30l-6 -30h-49q3 4 10.5 27.5t13.5 44.5l5 22l127 597h42l-47 -224q62 39 156 39q99 0 153.5 -76t31.5 -181q-22 -106 -108 -181.5 t-187 -77.5q-94 5 -142 40z" />
<glyph unicode="c" horiz-adv-x="478" d="M525 428l-36 -31q-44 67 -128 67q-82 0 -152.5 -63t-90.5 -153q-19 -89 25.5 -152t126.5 -63q83 0 153 64l24 -29q-90 -77 -186 -77q-98 0 -152.5 76t-32.5 181q22 106 109 182t185 76q101 0 155 -78z" />
<glyph unicode="d" horiz-adv-x="534" d="M527 411q-2 22 -40.5 37.5t-96.5 15.5q-84 -2 -155 -64t-89 -148q-19 -88 26 -151.5t127 -66.5h2q62 3 108 21t51 41zM440 3l6 29q-58 -34 -156 -39q-99 2 -153 77t-32 182q22 105 108.5 179t185.5 75h2h-2q92 0 140 -39l47 224h42l-126 -595l-14 -77q-1 -14 1 -16h-49z " />
<glyph unicode="e" horiz-adv-x="456" d="M246 32q55 0 138 37l9 -37q-54 -27 -128 -40h-1q-8 -1 -26 -1q-83 0 -129 69.5t-31 169.5l4 19q23 107 97.5 182.5t156.5 75.5q83 0 124.5 -73t18.5 -180l-5 -24h-353q-13 -83 23 -140t102 -58zM130 271h313q11 81 -22 137t-94 56q-60 0 -116.5 -56t-80.5 -137z" />
<glyph unicode="f" horiz-adv-x="328" d="M453 693l-21 -41q-8 2 -35 2q-45 -1 -84 -41.5t-51 -97.5l-6 -26h132l-9 -43h-132l-94 -446h-39l94 446h-76l9 43h74q1 0 3 7l3 19l3 12q18 69 70.5 118.5t110.5 49.5q32 0 48 -2z" />
<glyph unicode="g" horiz-adv-x="551" d="M236 116q8 2 24 2q84 0 132.5 -46t34.5 -112t-82.5 -113t-152.5 -47q-82 0 -131 47.5t-35 112.5q10 44 46 81t87 57q-7 21 -1 47q8 35 33 54q-63 53 -46 134q15 71 84 122t152 51q33 0 73 -11h173l-50 -42h-63q45 -48 29 -120q-15 -71 -83.5 -121t-151.5 -50 q-18 0 -43.5 6t-36.5 6q-33 0 -38 -27q-7 -32 28 -32q4 0 10 0.5t8 0.5zM66 -40q-10 -49 29.5 -84.5t104.5 -35.5q68 0 122.5 35.5t65.5 84.5t-29 84.5t-107 35.5q-64 0 -119.5 -36t-66.5 -84zM186 333q-11 -54 27 -92.5t103 -38.5q67 0 122 38.5t66 92.5q12 56 -26 94.5 t-105 38.5q-66 0 -120.5 -38.5t-66.5 -94.5z" />
<glyph unicode="h" horiz-adv-x="455" d="M194 693h42l-56 -264q67 78 155 78q70 0 107 -53t23 -129l-66 -322h-42l69 322q10 59 -20 100t-85 41q-49 0 -95 -36.5t-65 -89.5l-72 -340h-42z" />
<glyph unicode="i" horiz-adv-x="177" d="M66 0l106 500h41l-106 -500h-41zM196 650q2 11 12 19t22 8q11 0 18.5 -8.5t5.5 -18.5t-13 -18.5t-22 -8.5q-12 0 -18.5 8t-4.5 19z" />
<glyph unicode="j" horiz-adv-x="354" d="M334 645q5 27 33 27q10 0 16.5 -7.5t4.5 -19.5q-3 -11 -12.5 -19t-19.5 -8q-13 0 -19 8t-3 19zM11 -194l13 39q8 0 22 -1.5t21 -1.5l3 3q43 0 81 39.5t49 94.5l111 522h42l-113 -532q-19 -68 -70.5 -116.5t-109.5 -50.5h-2q-10 0 -27 2t-20 2z" />
<glyph unicode="k" horiz-adv-x="440" d="M250 691l-76 -357l226 160h64l-179 -126l132 -368h-49l-122 338l-83 -59l-59 -279h-47q7 7 14 45l137 646h42z" />
<glyph unicode="l" horiz-adv-x="162" d="M254 691l-146 -691h-42l146 691h42z" />
<glyph unicode="m" horiz-adv-x="739" d="M190 500l-10 -47l-6 -26q68 78 154 78q51 0 86.5 -31t45.5 -80q31 56 80.5 84.5t96.5 28.5q70 0 107 -52.5t23 -129.5l-67 -323h-42l69 323q11 58 -19.5 99t-83.5 41q-50 0 -96 -36.5t-64 -88.5l-72 -338h-42l68 321q11 59 -19 99.5t-85 40.5q-49 0 -94.5 -36t-64.5 -89 l-71 -338h-42l95 451q9 43 6 49h47z" />
<glyph unicode="n" horiz-adv-x="433" d="M187 496l-9 -40l-5 -27q66 79 155 79q70 0 107.5 -53t23.5 -130l-67 -325h-42l69 325q10 59 -20 100t-84 41q-50 0 -96 -36t-65 -90l-72 -340h-42l96 454q9 37 4 42h47z" />
<glyph unicode="o" horiz-adv-x="513" d="M117 247q-19 -89 24 -152t123 -63q78 0 147 63t88 152q19 90 -23 153.5t-120 63.5q-80 0 -149.5 -63.5t-89.5 -153.5zM75 247q22 107 107.5 183t182.5 76q96 0 148 -76t29 -183q-23 -106 -107 -181.5t-180 -75.5q-97 0 -150 75.5t-30 181.5z" />
<glyph unicode="p" horiz-adv-x="506" d="M100 87q1 -21 41 -36.5t98 -17.5q83 2 154.5 65.5t90.5 153.5q19 89 -26 151.5t-127 62.5q-62 0 -110 -17t-53 -41zM188 499l-7 -30q71 40 159 40q100 -2 154 -76.5t32 -180.5q-23 -108 -109.5 -184t-186.5 -76q-92 0 -141 39l-48 -226h-41l128 603v5l2 11l4 18q1 8 2 18 t2 17.5t1 13.5t-1 8h50z" />
<glyph unicode="q" horiz-adv-x="513" d="M515 470l6 24h40l-147 -689h-40l52 244q-64 -39 -154 -39h3h-3q-95 2 -148 74.5t-31 173.5q22 102 105.5 175t178.5 73q92 0 138 -36zM437 103l65 305q5 24 -33 41t-97 17h-3q-79 0 -148 -61t-88 -147q-18 -86 25 -146t122 -62q57 0 102 15.5t55 37.5z" />
<glyph unicode="r" horiz-adv-x="279" d="M356 503l-18 -41q-7 2 -19 2q-50 0 -95 -36t-65 -90l-71 -338h-42l96 452q8 47 5 49h47l-16 -74q68 79 155 79q16 0 23 -3z" />
<glyph unicode="s" horiz-adv-x="417" d="M469 443l-40 -25q-36 45 -116 45q-52 0 -91.5 -24t-46.5 -62q-8 -36 21 -66.5t80 -38.5q66 -10 101.5 -52.5t24.5 -95.5q-12 -58 -67.5 -95t-123.5 -37q-47 0 -87.5 17.5t-58.5 47.5l37 25q38 -49 115 -49q52 0 93 25.5t50 65.5q8 38 -20.5 69.5t-79.5 39.5 q-66 10 -102.5 52t-25.5 94q12 56 68.5 91t125.5 35q45 0 83 -17t60 -45z" />
<glyph unicode="t" horiz-adv-x="340" d="M272 691h42l-42 -198h135l-9 -43h-135l-95 -450h-40l95 450h-76l9 43h74z" />
<glyph unicode="u" horiz-adv-x="450" d="M356 0l9 46l5 24q-30 -36 -71 -57.5t-83 -21.5q-69 0 -106 53.5t-22 130.5l-2 5l67 318h41l-67 -318l1 -5q-11 -58 19.5 -99.5t84.5 -41.5q50 0 95.5 37t62.5 89l72 340h42l-96 -452q-9 -44 -5 -48h-47z" />
<glyph unicode="v" horiz-adv-x="500" d="M226 0l-95 500h45l85 -442l272 442h48l-310 -500h-45z" />
<glyph unicode="w" horiz-adv-x="705" d="M782 500l-310 -500l-45 3l-36 195l-125 -198l-45 3l-95 497h45l85 -442l122 198l-46 244h48l82 -442l272 442h48z" />
<glyph unicode="x" horiz-adv-x="444" d="M246 259l-102 241h53l84 -206l175 206h52l-208 -249l102 -251h-50l-91 216l-178 -216h-50z" />
<glyph unicode="y" horiz-adv-x="535" d="M12 -195l14 43q1 -2 3.5 -3t3.5 -3h2q3 0 11 -0.5t12 -0.5q36 0 74.5 24.5t64.5 67.5l61 99l-92 474h45l79 -422l256 422h45l-292 -471l-69 -117l-4 -9q-35 -51 -83 -80t-96 -29q-17 0 -35 5z" />
<glyph unicode="z" horiz-adv-x="452" d="M46 0l9 43l400 414h-309l9 43h364l-9 -43l-400 -414h312l-9 -43h-367z" />
<glyph unicode="{" horiz-adv-x="223" d="M159 47q0 -5 16 -5l-8 -42q-20 0 -37 13.5t-14 33.5l52 242q4 19 -6 32t-29 13h-20l9 42h20q19 0 34.5 13t19.5 32l48 225v2l1 3q7 18 26.5 29t41.5 11l-9 -43q-17 0 -17 -2l-51 -237q-7 -13 -21.5 -23t-28.5 -10l-9 -42q15 0 25.5 -8.5t11.5 -23.5z" />
<glyph unicode="|" horiz-adv-x="131" d="M57 1l152 716h26l-152 -716h-26z" />
<glyph unicode="}" horiz-adv-x="188" d="M58 47l55 255q13 32 46 32l11 42q-16 0 -25 9.5t-10 23.5l51 237q-3 2 -20 2l9 43q25 0 39 -11t13 -29l1 -3v-2l-48 -225q-4 -19 4.5 -32t26.5 -13h21l-9 -42h-21q-18 0 -32 -12.5t-18 -32.5l-52 -242q-4 -19 -26.5 -33t-44.5 -14l8 42q13 0 21 5z" />
<glyph unicode="~" horiz-adv-x="347" d="M230 305q-16 6 -38 6q-50 0 -81 -22l-10 31q41 25 97 25q20 0 48.5 -10t47.5 -10q51 0 82 22l8 -30q-42 -26 -95 -26q-36 0 -59 14z" />
<glyph unicode="&#xa2;" horiz-adv-x="478" d="M348 504l14 68h47l-14 -68q83 -9 130 -76l-36 -31q-36 56 -103 65l-91 -428q68 9 128 63l24 -29q-79 -66 -161 -75l-14 -68h-47l14 68q-89 8 -136.5 82t-26.5 173q22 100 100.5 173.5t171.5 82.5zM118 248q-17 -82 20 -143.5t110 -70.5l91 428q-77 -9 -140 -70t-81 -144z " />
<glyph unicode="&#xa3;" horiz-adv-x="556" d="M434 301h-183l-55 -259h337l-8 -42h-379l63 301h-120l9 42h120l74 348h42l-74 -348h183z" />
<glyph unicode="&#xa5;" horiz-adv-x="681" d="M204 148l9 44h146l8 38h-146l10 44h146l8 39l-203 378h57l175 -338l321 338h56l-363 -378l-8 -39h146l-10 -44h-146l-8 -38h146l-9 -44h-146l-31 -148h-43l31 148h-146z" />
<glyph unicode="&#xad;" d="M445 273h-345l8 42h345z" />
<glyph unicode="&#xb4;" horiz-adv-x="209" d="M312 640l-128 -87h-23l85 87h66z" />
<glyph unicode="&#x2000;" horiz-adv-x="368" />
<glyph unicode="&#x2001;" horiz-adv-x="737" />
<glyph unicode="&#x2002;" horiz-adv-x="368" />
<glyph unicode="&#x2003;" horiz-adv-x="737" />
<glyph unicode="&#x2004;" horiz-adv-x="245" />
<glyph unicode="&#x2005;" horiz-adv-x="184" />
<glyph unicode="&#x2006;" horiz-adv-x="122" />
<glyph unicode="&#x2007;" horiz-adv-x="122" />
<glyph unicode="&#x2008;" horiz-adv-x="92" />
<glyph unicode="&#x2009;" horiz-adv-x="147" />
<glyph unicode="&#x200a;" horiz-adv-x="40" />
<glyph unicode="&#x2010;" d="M445 273h-345l8 42h345z" />
<glyph unicode="&#x2011;" d="M445 273h-345l8 42h345z" />
<glyph unicode="&#x2013;" horiz-adv-x="416" d="M445 273h-345l8 42h345z" />
<glyph unicode="&#x2014;" horiz-adv-x="532" d="M559 273h-459l8 42h459z" />
<glyph unicode="&#x2018;" horiz-adv-x="150" d="M209 612l13 -57l-47 -20l-14 58l65 97l7 -4z" />
<glyph unicode="&#x2019;" horiz-adv-x="159" d="M199 623l6 63l49 5l-6 -63l-91 -78l-4 6z" />
<glyph unicode="&#x201c;" horiz-adv-x="218" d="M308 686l-20 -63l18 -67l-8 -6l-57 78l20 63zM235 686l-20 -63l18 -67l-8 -6l-57 78l20 63z" />
<glyph unicode="&#x201d;" horiz-adv-x="237" d="M272 623l6 63l49 5l-6 -63l-91 -78l-4 6zM199 623l6 63l49 5l-6 -63l-91 -78l-4 6z" />
<glyph unicode="&#x2022;" horiz-adv-x="209" d="M126 384q5 25 28 44t48 19q24 0 39 -19t10 -44q-5 -22 -28.5 -41t-47.5 -19t-39 18.5t-10 41.5z" />
<glyph unicode="&#x2026;" horiz-adv-x="435" d="M333 0l13 64h64l-13 -64h-64zM188 0l13 64h64l-13 -64h-64zM43 0l13 64h64l-13 -64h-64z" />
<glyph unicode="&#x202f;" horiz-adv-x="147" />
<glyph unicode="&#x205f;" horiz-adv-x="184" />
<glyph unicode="&#x20ac;" horiz-adv-x="745" d="M709 136l24 -34q-128 -111 -267 -111q-116 0 -188.5 76.5t-74.5 193.5h-107l9 43h100q2 7 3 20.5t2 17.5q3 13 10 34.5t7 22.5h-102l9 42h111q54 111 157.5 182.5t212.5 71.5q140 0 221 -111l-38 -31q-68 99 -192 99q-94 0 -181.5 -58.5t-136.5 -152.5h343l-9 -42h-352 q-11 -30 -17 -57q0 -2 -2 -16.5t-4 -21.5h355l-9 -43h-345q2 -98 65.5 -162.5t161.5 -64.5q126 0 234 102z" />
<glyph unicode="&#x2122;" horiz-adv-x="417" d="M262 654l-37 -174h-32l37 174h-60l6 29h150l-6 -29h-58zM482 683h25l-43 -203h-30l29 138q-46 -55 -58 -72h-16l-27 72l-29 -138h-31l43 203h26l35 -95z" />
<glyph horiz-adv-x="257" />
</font>
</defs>
</svg>
