<?xml version="1.0" standalone="no"?>
<!DOCTYPE svg PUBLIC "-//W3C//DTD SVG 1.1//EN" "http://www.w3.org/Graphics/SVG/1.1/DTD/svg11.dtd" >
<svg xmlns="http://www.w3.org/2000/svg">
<metadata>
This is a custom SVG webfont generated by Font Squirrel.
Designer    : La Tipomatika (Digital Type Foundry)
Foundry     : La Tipomatika
</metadata>
<defs>
<font id="webfontlHGdtk0E" horiz-adv-x="421" >
<font-face units-per-em="1000" ascent="800" descent="-200" />
<missing-glyph horiz-adv-x="257" />
<glyph unicode=" "  horiz-adv-x="257" />
<glyph unicode="&#x09;" horiz-adv-x="257" />
<glyph unicode="&#xa0;" horiz-adv-x="257" />
<glyph unicode="!" horiz-adv-x="176" d="M122 31v-1q-3 -15 -16.5 -27t-28.5 -12q-17 0 -25.5 11.5t-5.5 27.5q4 17 17 27.5t30 10.5q36 0 29 -37zM65 93l125 588h65l-125 -588h-65z" />
<glyph unicode="&#x22;" horiz-adv-x="217" d="M144 529l21 152h76l-7 -77l-69 -102zM214 529l21 152h77l-8 -77l-69 -102z" />
<glyph unicode="#" horiz-adv-x="714" d="M51 207l76 74h95q6 11 22.5 38.5t23.5 40.5l14 23h-194l74 73h160l61 101q8 14 25 41l23 38h75l-106 -180h191l74 125q6 9 17 29l16 26h76l-106 -180h122l-74 -73h-87l-21 -35l-19 -30q-13 -21 -22 -37h187l-77 -74h-152l-56 -97l-62 -110h-78l120 207h-193l-75 -132l1 1 l-22 -38q-16 -27 -22 -38h-77l120 207h-130zM360 383l-61 -102h193l26 47q11 16 33 55h-191z" />
<glyph unicode="$" horiz-adv-x="466" d="M271 382l47 224q-43 -13 -74.5 -42.5t-39.5 -66.5q-8 -38 10 -70t57 -45zM324 294l-48 -226q43 9 75.5 38t41.5 69q8 39 -11.5 72.5t-57.5 46.5zM343 724h72l-8 -40q94 -6 150 -90l-67 -46q-38 58 -98 65l-53 -248q72 -18 107.5 -68.5t20.5 -118.5q-14 -65 -73.5 -116.5 t-133.5 -66.5l-12 -57h-72l12 55q-50 6 -89 34t-59 71l67 46q35 -72 96 -79l52 241q-73 16 -107 67.5t-19 120.5q14 67 71.5 118t133.5 67z" />
<glyph unicode="&#x26;" horiz-adv-x="597" d="M241 0q-89 0 -137 57t-31 136q11 55 63.5 106.5t134.5 88.5h2q2 1 3 1q-1 1 0 2v-1q0 2 -1 3q-36 50 -44 81.5t-1 63.5q13 58 67.5 102.5t125.5 44.5q67 0 101 -41.5t22 -99.5q-19 -91 -160 -160l-3 -2l53 -93l39 -67q1 2 4 5q28 40 51 91l77 -16q-58 -104 -92 -144 q0 -2 -2 -6l-2 -4q15 -37 47 -70l-18 -84q-51 38 -79 84q-4 8 -5 9l-3 6l-5 -4q-101 -90 -207 -89zM491 138l-1 7h20v-5zM468 543q7 34 -10.5 57.5t-52.5 23.5q-32 0 -60.5 -23t-35.5 -55q-6 -37 16 -71l30 -45h1l2 1h-1q56 29 80 53.5t31 58.5zM305 341l-3 -2 q-131 -67 -146 -141q-11 -50 17 -90.5t82 -40.5q38 -1 82 22t77 59l2 2q-9 15 -31 54.5t-35 60.5z" />
<glyph unicode="'" horiz-adv-x="121" d="M166 604l6 71l78 6l-8 -80l-105 -92l-20 25z" />
<glyph unicode="(" horiz-adv-x="260" d="M306 698l14 -78q-46 -45 -87 -135t-63 -198q-25 -120 -19 -214t40 -134l-57 -67q-46 57 -57.5 167.5t16.5 247.5q27 128 85.5 239.5t127.5 171.5z" />
<glyph unicode=")" horiz-adv-x="246" d="M184 620l46 78q44 -61 56 -171t-14 -240q-29 -133 -89 -245t-129 -169l-28 67q51 40 97 134.5t71 212.5q23 108 20.5 198.5t-30.5 134.5z" />
<glyph unicode="*" horiz-adv-x="471" d="M362 457l-20 -94h-71l19 92l-25 -21l-31 -24q-13 -11 -21 -19l-42 50l80 65h-91l15 71h91l-51 65l62 51l50 -64l20 91h71l-20 -91l79 64l40 -50l-78 -65h91l-15 -72h-93q1 -2 18 -21l34 -44l-60 -50z" />
<glyph unicode="+" horiz-adv-x="452" d="M311 256l-30 -142h-72l30 142h-141l15 72h141l30 142h72l-30 -142h142l-15 -72h-142z" />
<glyph unicode="," horiz-adv-x="173" d="M63 21l15 72h77l-18 -84l-113 -83l-13 32z" />
<glyph unicode="-" d="M440 256h-356l15 72h356z" />
<glyph unicode="." horiz-adv-x="145" d="M26 0l19 93h93l-19 -93h-93z" />
<glyph unicode="/" horiz-adv-x="378" d="M495 681l-393 -681h-76l393 681h76z" />
<glyph unicode="0" horiz-adv-x="586" d="M177 338q-24 -114 12 -194t112 -80t145.5 80t93.5 194q25 114 -10.5 194t-111.5 80t-146 -80t-95 -194zM104 338q31 144 127.5 245.5t201.5 101.5t157 -101.5t21 -245.5q-30 -143 -125 -245t-200 -102q-104 0 -158 102.5t-24 244.5z" />
<glyph unicode="1" horiz-adv-x="263" d="M176 518l-41 50l160 113h61l-144 -681h-72l123 579l-75 -52q-4 -1 -12 -9z" />
<glyph unicode="2" horiz-adv-x="475" d="M439 321l-273 -250h279l-15 -71h-385l13 62l343 310q45 40 57 96q13 61 -21.5 102.5t-96.5 41.5q-60 0 -125 -52l-41 52q99 73 181 73q91 0 142 -64t32 -153q-17 -81 -90 -147z" />
<glyph unicode="3" horiz-adv-x="431" d="M24 72l60 50q44 -61 112 -61q59 0 109 37.5t60 89.5q9 41 -23.5 76.5t-81.5 46.5h-101l15 72h103q56 3 101.5 36.5t54.5 77.5q10 48 -24 82t-92 34q-76 0 -141 -60l-38 53q90 79 194 79q89 0 140.5 -55t35.5 -133q-9 -46 -43.5 -86t-82.5 -66q77 -60 55 -157 q-17 -83 -92 -141t-164 -58q-50 0 -91 22.5t-66 60.5z" />
<glyph unicode="4" horiz-adv-x="473" d="M314 238h-238l15 61l306 387l56 -34l-271 -342h147l31 144h73l-31 -144h92l-15 -72h-92l-50 -238h-73z" />
<glyph unicode="5" horiz-adv-x="504" d="M174 330h-67l99 351h377l-15 -73h-308l-22 -67q-17 -59 -25 -83q62 39 133 39q94 0 144 -72t28 -175q-23 -104 -103.5 -177t-173.5 -73q-54 0 -97.5 29.5t-65.5 80.5l63 52q16 -42 46.5 -66.5t68.5 -24.5q63 0 118.5 52.5t71.5 126.5q15 73 -18.5 124.5t-96.5 51.5 q-43 0 -85.5 -26t-71.5 -70z" />
<glyph unicode="6" horiz-adv-x="506" d="M512 210l-2 -9q-19 -88 -93 -148.5t-163 -60.5q-85 0 -132.5 59t-32.5 147l-1 -1q5 39 24 131l4 20q22 98 47 156q30 76 99.5 128t147.5 53q115 0 170 -103l-77 -40q-16 32 -44.5 51.5t-62.5 19.5q-52 0 -101 -36.5t-69 -90.5q-23 -59 -40 -132q66 56 153 61 q88 0 139.5 -58.5t33.5 -146.5zM442 208q10 57 -23 96t-91 39t-107 -42.5t-61 -101.5q-12 -56 21 -96t90 -40q58 0 107.5 40t61.5 97z" />
<glyph unicode="7" horiz-adv-x="443" d="M23 0l413 608h-253l15 73h369l-462 -681h-82z" />
<glyph unicode="8" horiz-adv-x="459" d="M62 196q11 51 45.5 96t81.5 74q-58 49 -39 140q16 73 81 126t139 53q78 0 120.5 -52.5t26.5 -126.5q-18 -89 -99 -140q37 -27 50.5 -71.5t2.5 -98.5q-18 -85 -90 -145t-158 -60q-83 0 -131 60.5t-30 144.5zM221 506q-9 -44 17 -75t72 -31q47 0 86 31t48 75q10 44 -16 75 t-73 31q-46 0 -85 -31t-49 -75zM135 196q-11 -54 19.5 -93t83.5 -39q55 0 103 39t59 93q12 55 -19 94t-87 39q-53 0 -100 -39t-59 -94z" />
<glyph unicode="9" horiz-adv-x="489" d="M128 468l1 6q19 87 93.5 149t162.5 62q84 0 132 -61t37 -146q-5 -39 -25 -133l-5 -25q-21 -92 -44 -146q-31 -80 -104.5 -130.5t-155.5 -50.5q-49 0 -91.5 26t-67.5 70l76 53q16 -35 44 -55t62 -20q55 0 102.5 35t71.5 88v-1q24 76 38 134q-75 -58 -161 -58 q-84 0 -133.5 59t-32.5 144zM371 612q-59 0 -110 -42t-64 -100q-8 -56 24 -95t88 -39q59 0 109 40.5t63 99.5q11 55 -22 95.5t-88 40.5z" />
<glyph unicode=":" horiz-adv-x="182" d="M44 0l19 93h93l-19 -93h-93zM130 409l20 92h93l-20 -92h-93z" />
<glyph unicode=";" horiz-adv-x="169" d="M130 409l20 92h91l-20 -92h-91zM53 21l15 72h78l-18 -84l-115 -83l-13 32z" />
<glyph unicode="&#x3c;" horiz-adv-x="330" d="M62 249l304 253l42 -50l-245 -203l74 -93l85 -106l-62 -52z" />
<glyph unicode="=" horiz-adv-x="440" d="M135 369l16 74h346l-16 -74h-346zM96 188l16 73h346l-16 -73h-346z" />
<glyph unicode="&#x3e;" horiz-adv-x="336" d="M177 502l197 -253l-304 -251l-40 52l243 199q-5 7 -32 41l-42 53q-72 93 -83 109z" />
<glyph unicode="?" horiz-adv-x="410" d="M247 0h-78l-22 312l13 60h105q48 2 88.5 36t50.5 83q11 50 -16 86t-75 36q-64 0 -127 -78l-40 51q84 99 182 99q78 0 120.5 -57t25.5 -137q-17 -77 -82.5 -133.5t-142.5 -56.5h-29l6 -62q11 -144 21 -239zM168 -74q4 18 18.5 29.5t30.5 11.5q19 0 28 -11t5 -30 q-4 -18 -18.5 -31t-32.5 -13q-16 0 -25.5 13.5t-5.5 30.5z" />
<glyph unicode="@" horiz-adv-x="754" d="M534 206q19 0 53.5 25t57.5 59q14 19 28.5 55t20.5 61q18 82 -33 140t-149 58q-113 0 -204.5 -79t-117.5 -197q-25 -116 33 -181t187 -65q77 0 142.5 28.5t105.5 74.5h92l-21 -32q-49 -64 -138 -108t-197 -44q-160 0 -238.5 83.5t-45.5 237.5q34 156 151 259.5t271 103.5 q124 0 196.5 -76.5t45.5 -203.5q-20 -95 -96 -178t-164 -95q-53 3 -69 21q-44 -24 -82 -24q-57 0 -87.5 40.5t-18.5 98.5q13 58 61.5 97.5t106.5 39.5h59q13 72 -13 72q-35 0 -63 -9l-22 -1l-3 74l24 1q33 10 81 10q86 -3 69 -144q-18 -74 -32 -142q-1 -10 -6 -24v1 q-14 -37 15 -37zM460 268l15 67h-65q-30 0 -55.5 -19t-32.5 -48q-6 -28 10.5 -48t45.5 -20q28 0 52 20t30 48z" />
<glyph unicode="A" horiz-adv-x="596" d="M292 346h157q-2 17 -8 53t-8 49v-1q-13 72 -18 109q-29 -45 -47 -80l-1 -1zM15 0l401 691h55l109 -691h-76l-43 273h-210l-104 -177l-57 -96h-75z" />
<glyph unicode="B" horiz-adv-x="512" d="M270 2l-19 -2h-209l146 691h226q79 -1 123.5 -54t29.5 -124q-19 -91 -107 -146q35 -27 50 -71t5 -93q-17 -82 -88.5 -141t-157.5 -60h1zM495 513q8 42 -20 73t-77 34h-153l-46 -217h154q51 2 91.5 33t50.5 77zM283 73q55 3 101.5 41t57.5 89q11 50 -20 87.5t-85 39.5 h-153l-55 -257h154z" />
<glyph unicode="C" horiz-adv-x="590" d="M686 587l-61 -50q-64 85 -158 85q-100 0 -188 -81t-113 -196q-24 -116 27.5 -198t154.5 -82q91 0 193 84l40 -50q-126 -108 -248 -108q-126 0 -199 105t-42 249q30 141 144.5 245.5t245.5 104.5q61 0 114.5 -29t89.5 -79z" />
<glyph unicode="D" horiz-adv-x="575" d="M417 618h-187l-116 -545q60 0 91 1q17 0 49.5 0.5t48.5 0.5q71 2 138.5 81.5t90.5 190.5q24 111 -10 190t-105 81zM26 0l146 691h260q67 -1 114.5 -48t62 -123t-3.5 -173q-30 -142 -121.5 -242.5t-195.5 -104.5h-262z" />
<glyph unicode="E" horiz-adv-x="485" d="M480 403l-15 -73h-290l-55 -257h340l-15 -73h-412l146 691h412l-15 -71h-340l-46 -217h290z" />
<glyph unicode="F" horiz-adv-x="487" d="M484 403l-15 -73h-290l-70 -330h-72l146 691h412l-15 -70h-340l-46 -218h290z" />
<glyph unicode="G" horiz-adv-x="604" d="M574 98l-4 -10q-114 -97 -239 -97q-131 0 -202.5 103.5t-40.5 247.5q31 146 146 249.5t246 103.5q126 0 205 -108l-62 -51q-63 85 -159 85q-102 0 -190.5 -81t-113.5 -198q-24 -115 30.5 -197.5t155.5 -82.5q81 0 160 59l35 165h-181l15 71h254z" />
<glyph unicode="H" horiz-adv-x="558" d="M511 330h-330l-70 -330h-73l146 691h73l-61 -288h330l61 288h72l-146 -691h-72z" />
<glyph unicode="I" horiz-adv-x="138" d="M252 691l-146 -691h-73l146 691h73z" />
<glyph unicode="J" horiz-adv-x="305" d="M399 691l-109 -514q-16 -75 -69 -130.5t-109 -55.5q-50 0 -88 57l58 50q25 -34 45 -34q27 0 53 31.5t36 79.5l109 516h74z" />
<glyph unicode="K" horiz-adv-x="583" d="M179 691h73l-69 -328l352 328h98l-324 -303l251 -388h-96l-216 333q-26 -26 -41 -39q-23 -24 -49 -46l-52 -248h-73z" />
<glyph unicode="L" horiz-adv-x="453" d="M250 691l-131 -618h322l-15 -73h-394l146 691h72z" />
<glyph unicode="M" horiz-adv-x="623" d="M371 340l278 351h67l-146 -691h-74l113 536l-240 -303h-45l-114 303l-113 -536h-73l146 691h66z" />
<glyph unicode="N" horiz-adv-x="537" d="M182 691h65l202 -533l113 533h73l-146 -691h-66l-202 536l-113 -536h-72z" />
<glyph unicode="O" horiz-adv-x="690" d="M618 548q-50 73 -151 73t-188 -80.5t-112 -195.5q-25 -117 28 -198.5t154 -81.5q104 0 191.5 81.5t112.5 198.5q26 126 -35 203zM573 88q-110 -97 -239 -97t-201 102.5t-40 251.5q31 145 145 247.5t245 102.5q135 0 203.5 -101.5t37.5 -248.5q-33 -154 -151 -257z" />
<glyph unicode="P" horiz-adv-x="480" d="M315 329h-133l-69 -329h-72l146 691h205q84 0 132.5 -52.5t33.5 -125.5q-16 -77 -87 -130.5t-156 -53.5zM376 620h-132l-46 -218h133q54 0 99 32t55 79q9 43 -23.5 75t-85.5 32z" />
<glyph unicode="Q" horiz-adv-x="665" d="M589 558q-50 70 -136 70q-92 0 -174 -76.5t-104 -184.5q-19 -87 11 -156t96 -93l13 65q41 1 67 -18.5t31 -50.5q78 22 144 93t85 160q23 116 -33 191zM289 116h-8l1 2q1 -1 3 -1q3 -1 4 -1zM549 131q-73 -65 -164 -84q0 -41 16 -41q12 0 32 32l44 -48q-52 -54 -91 -54 q-32 0 -51.5 30.5t-19.5 75.5q-112 10 -174.5 103t-34.5 222q29 138 135.5 233t225.5 95q121 0 188 -95.5t38 -232.5q-30 -138 -144 -236z" />
<glyph unicode="R" horiz-adv-x="474" d="M375 0l-206 303l-64 -303h-73l146 691h205q85 0 133 -52t32 -127q-16 -76 -86 -129t-155 -53h-58l97 -146q15 -24 124 -184h-95zM366 621h-130l-46 -218h132q54 0 98.5 31.5t54.5 77.5q10 44 -22 76.5t-87 32.5z" />
<glyph unicode="S" horiz-adv-x="485" d="M50 100l67 46q35 -82 128 -82q56 0 103.5 33.5t57.5 80.5q10 45 -20.5 82t-84.5 45q-83 12 -130.5 68t-31.5 129q18 82 93 137t166 55q113 0 176 -90l-70 -48q-40 68 -121 68q-57 0 -108 -35t-61 -83q-11 -49 21 -87t89 -42q83 -10 128.5 -66.5t29.5 -129.5 q-17 -79 -91 -134.5t-163 -55.5q-61 0 -108.5 30t-69.5 79z" />
<glyph unicode="T" horiz-adv-x="575" d="M665 620h-214l-131 -620h-73l131 620h-216l15 71h503z" />
<glyph unicode="U" horiz-adv-x="598" d="M254 691l-108 -509q-2 -47 44.5 -82t117.5 -35q68 0 128.5 35t77.5 82l108 509h73l-108 -510q-20 -77 -106.5 -133.5t-187.5 -56.5q-106 0 -170 55.5t-53 133.5l108 511h76z" />
<glyph unicode="V" horiz-adv-x="639" d="M281 0l-108 691h75l91 -569l138 236l193 333h76l-401 -691h-64z" />
<glyph unicode="W" horiz-adv-x="915" d="M1003 691l-401 -691h-65l-40 251q-14 -23 -64 -111l-80 -140h-65l-109 691h75l91 -570l62 108v-1l74 128q-5 28 -13 82l-12 78v-1q-17 119 -27 176h75l43 -273q4 -29 13 -78.5t12 -68.5l23 -150l126 217l205 353h77z" />
<glyph unicode="X" horiz-adv-x="541" d="M295 353l-126 338h84l104 -270l101 125l116 145h85l-274 -344l59 -164l69 -183h-85l-107 280l-134 -168l-43 -53l-46 -59h-84z" />
<glyph unicode="Y" horiz-adv-x="681" d="M707 691h94l-367 -382l-65 -309h-74l65 309l-56 106l-148 276h95l160 -310l78 81z" />
<glyph unicode="Z" horiz-adv-x="548" d="M671 691l-514 -618h337l-15 -73h-468l516 618h-345l15 73h474z" />
<glyph unicode="[" horiz-adv-x="210" d="M224 305l-49 -234h16l-15 -71q-29 0 -55 17.5t-21 43.5l49 226q2 11 -4 18.5t-16 7.5h-36l15 72h36q10 0 19.5 7.5t11.5 18.5l46 219q9 22 37.5 36.5t61.5 14.5l-15 -74q-3 0 -7.5 -0.5t-6.5 -1t-3 0.5l-44 -208q-23 -40 -50 -44l-2 -10q29 -10 32 -39z" />
<glyph unicode="\" horiz-adv-x="371" d="M274 0l-104 681h75l106 -681h-77z" />
<glyph unicode="]" horiz-adv-x="183" d="M47 71l49 232q16 36 47 42q1 4 3 10q-30 12 -30 41l45 211h-18l15 74q36 0 57 -14.5t21 -36.5l1 -8l-45 -211q-5 -26 16 -26h36l-15 -72h-36q-22 0 -27 -26l-49 -226q-5 -26 -37.5 -43.5t-65.5 -17.5l15 71h18z" />
<glyph unicode="^" horiz-adv-x="551" d="M107 437l308 250l197 -251l-63 -51l-157 201l-114 -94l-131 -107z" />
<glyph unicode="_" horiz-adv-x="513" d="M458 0h-428l15 71h428z" />
<glyph unicode="`" horiz-adv-x="204" d="M241 519l-120 113h117l61 -113h-58z" />
<glyph unicode="a" horiz-adv-x="406" d="M293 0l4 19q-52 -29 -104 -29q-68 0 -107.5 46.5t-25.5 111.5q15 69 75.5 114.5t131.5 45.5h91l1 3q11 51 -5 87t-53 37q-55 0 -124 -19l-3 70q79 21 143 21q62 -1 96 -52t22 -124l-2 -10l-36 -158q-27 -133 -6 -163h-98zM324 148l19 88h-91q-42 0 -77 -24.5t-43 -63.5 q-7 -35 15.5 -59.5t61.5 -24.5q41 0 74.5 24.5t40.5 59.5z" />
<glyph unicode="b" horiz-adv-x="523" d="M203 399l-62 -295q-2 -11 13 -20t42.5 -14.5t61.5 -6.5q69 2 131 56.5t78 130.5q16 75 -22.5 130t-107.5 55q-46 0 -85 -10.5t-49 -25.5zM122 15l-3 -15h-93q12 13 23.5 39t16.5 45l6 20l122 577h72l-42 -197q58 23 128 23q100 0 154.5 -76t32.5 -181 q-22 -106 -109.5 -182t-188.5 -78q-78 5 -119 25z" />
<glyph unicode="c" horiz-adv-x="478" d="M526 417l-63 -53q-45 71 -117 71q-70 0 -131.5 -54.5t-77.5 -131.5t22 -131t108 -54t143 67l43 -51q-105 -89 -201 -89q-98 0 -153 76.5t-33 181.5q23 106 110 182t185 76q102 0 165 -90z" />
<glyph unicode="d" horiz-adv-x="534" d="M165 253q-16 -76 22 -131t110 -57q51 2 89 14.5t41 26.5l62 291q-3 15 -35.5 26.5t-78.5 11.5q-72 -2 -133 -55.5t-77 -126.5zM405 3l3 15q-54 -20 -126 -25q-99 2 -154 78t-33 182q22 105 109 179t186 75q77 0 117 -24l42 198h72l-122 -575q-16 -74 14 -103h-108z" />
<glyph unicode="e" horiz-adv-x="456" d="M246 63q48 0 137 39l15 -63q-69 -34 -141 -47q-8 -1 -26 -1q-84 0 -132 70t-32 170l4 19q22 106 98.5 182t159.5 76q85 0 127.5 -73t19.5 -180l-9 -39h-329q-6 -66 24 -109t84 -44zM155 286h255q6 65 -21 107t-75 42q-45 0 -90 -43t-69 -106z" />
<glyph unicode="f" horiz-adv-x="328" d="M458 680l-37 -73q-24 6 -44 6q-35 -2 -65.5 -34.5t-40.5 -79.5l-2 -8h123l-16 -73h-123l-88 -418h-69l88 418h-71l16 73h70v6l3 13q19 71 75 123t115 52q28 0 66 -5z" />
<glyph unicode="g" horiz-adv-x="551" d="M225 140q1 0 2.5 0.5t2.5 0.5h2q8 2 27 2q86 0 135 -48t35 -116q-14 -69 -84 -118t-156 -49q-83 0 -133 49.5t-36 117.5q9 41 42 78t79 59q-2 10 4 36q4 22 22 48q-51 49 -35 129q16 73 86 125.5t154 52.5q32 0 74 -10h194l-83 -72h-29q21 -47 10 -96q-16 -75 -86 -126 t-155 -51q-23 0 -47 6q-17 5 -27 5q-14 0 -17 -9q-2 -14 14 -14h5zM91 -21q-8 -39 25 -68t87 -29q57 0 103 29t54 68t-26 67.5t-90 28.5q-54 0 -99.5 -29t-53.5 -67zM203 329q-9 -44 23 -75.5t86 -31.5q57 0 102 31t54 76q10 45 -22 76.5t-89 31.5q-54 0 -99 -31.5 t-55 -76.5z" />
<glyph unicode="h" horiz-adv-x="455" d="M180 683h71l-47 -219q57 44 124 44q72 0 110.5 -54.5t23.5 -132.5l-65 -318h-71l68 318q8 49 -17.5 82.5t-69.5 33.5q-35 0 -73 -31t-58 -73l-70 -333h-71z" />
<glyph unicode="i" horiz-adv-x="177" d="M49 0l106 501h70l-106 -501h-70zM174 626q3 17 18 29t33 12q17 0 28 -12.5t8 -28.5q-4 -17 -20 -29.5t-33 -12.5q-18 0 -28 12.5t-6 29.5z" />
<glyph unicode="j" horiz-adv-x="354" d="M304 621q10 41 52 41q15 0 25 -11.5t6 -29.5q-3 -16 -18 -29t-30 -13q-19 0 -28.5 12.5t-6.5 29.5zM-2 -182l20 69q27 0 41 -2q3 -1 4 -1l2 3q39 0 72 32t43 77l107 506h71l-109 -515q-19 -71 -73 -121t-117 -52q-10 0 -36 2q-4 2 -25 2z" />
<glyph unicode="k" horiz-adv-x="440" d="M265 681l-67 -318l125 90l58 43h113l-197 -139q7 -20 21.5 -58.5t16.5 -43.5l92 -255h-85l-111 309q-6 -4 -24 -18t-29 -21l-57 -270h-100q34 29 40 59l132 622h72z" />
<glyph unicode="l" horiz-adv-x="162" d="M49 0l144 681h71l-144 -681h-71z" />
<glyph unicode="m" horiz-adv-x="739" d="M212 501l-8 -39q54 44 121 44q93 0 128 -83q33 43 76.5 64t86.5 21q71 0 109.5 -54t24.5 -133l-66 -319h-72l68 319q8 48 -15.5 81.5t-67.5 33.5q-38 0 -76 -31t-56 -72l-70 -331h-72l67 317q10 49 -14.5 82t-69.5 33q-36 0 -73.5 -31t-56.5 -72l-70 -331h-72l93 440 q3 12 -2 32.5t-13 28.5h100z" />
<glyph unicode="n" horiz-adv-x="433" d="M204 497l-7 -32q54 44 125 44t109.5 -54.5t24.5 -133.5l-66 -321h-72l68 321q10 48 -15 82t-70 34q-37 0 -74.5 -31t-57.5 -73l-70 -333h-71l93 442q3 12 -2.5 29t-13.5 26h99z" />
<glyph unicode="o" horiz-adv-x="513" d="M138 248q-16 -77 20.5 -131t103.5 -54t126 54.5t75 130.5q16 77 -19.5 132t-102.5 55t-126.5 -55t-76.5 -132zM65 248q23 107 108.5 183t182.5 76q98 0 150.5 -76t29.5 -183q-23 -106 -107.5 -182t-182.5 -76q-97 0 -150.5 76t-30.5 182z" />
<glyph unicode="p" horiz-adv-x="506" d="M185 399l-63 -297q2 -14 35.5 -25t80.5 -13q72 2 133.5 56.5t77.5 132.5q16 76 -22.5 130t-109.5 54q-50 0 -89 -11.5t-43 -26.5zM207 500l-4 -16q70 26 130 26q100 -2 155 -77.5t32 -179.5q-23 -109 -109.5 -185t-187.5 -76q-72 0 -118 24l-42 -199h-71l122 582 q13 71 -8 101h101z" />
<glyph unicode="q" horiz-adv-x="513" d="M484 486l2 10h71l-144 -679h-71l46 217q-51 -24 -125 -24q-95 2 -149 74.5t-32 173.5q22 102 106.5 175.5t179.5 73.5q74 0 116 -21zM405 117l60 282q2 10 -12 18.5t-41 14t-59 5.5q-68 0 -126.5 -52.5t-74.5 -126.5q-15 -73 21.5 -125t103.5 -54q46 0 82.5 11t45.5 27z " />
<glyph unicode="r" horiz-adv-x="279" d="M364 498l-33 -70q-20 7 -28 7q-37 0 -74.5 -31t-55.5 -73l-70 -331h-72l93 440q3 14 -5 31.5t-25 30.5h115l-8 -39q55 44 122 44q21 0 41 -9z" />
<glyph unicode="s" horiz-adv-x="417" d="M474 430l-67 -42q-40 46 -107 46q-41 0 -72.5 -18t-37.5 -46t18 -52t67 -31q66 -10 102.5 -55t25.5 -100q-13 -61 -71 -100.5t-128 -39.5q-46 0 -89 21.5t-65 58.5l63 42q40 -50 103 -50q42 0 75.5 19t40.5 49q5 25 -21 50.5t-64 36.5q-63 11 -101.5 56t-28.5 96 q13 59 71.5 97t130.5 38q46 0 87.5 -21t67.5 -55z" />
<glyph unicode="t" horiz-adv-x="340" d="M251 681h73l-39 -186h126l-16 -73h-126l-89 -422h-71l89 422h-71l16 73h69z" />
<glyph unicode="u" horiz-adv-x="450" d="M325 0l7 36q-59 -45 -123 -45q-70 0 -108.5 53.5t-24.5 130.5l-3 3l69 321h71l-67 -314v-5q-8 -47 16.5 -81t68.5 -34q37 0 74.5 31.5t54.5 72.5l71 332h72l-93 -439q-4 -14 1.5 -33t13.5 -29h-100z" />
<glyph unicode="v" horiz-adv-x="500" d="M209 0l-96 501h76l77 -387l169 276l32 52q25 41 37 59h79l-311 -501h-63z" />
<glyph unicode="w" horiz-adv-x="705" d="M774 501l-311 -501l-63 3l-29 157l-37 -57l-29 -46l-36 -57l-61 3l-97 498h77l75 -384l33 51l54 88q-15 89 -24 131q-11 51 -21 114h80l72 -386l238 386h79z" />
<glyph unicode="x" horiz-adv-x="444" d="M221 260l-102 241h87l73 -178l51 60l47 54q11 11 31 35l25 29h86l-210 -249l61 -149q5 -11 20 -49l23 -54h-85l-80 188l-34 -41h1l-121 -147h-86z" />
<glyph unicode="y" horiz-adv-x="535" d="M1 -180l29 83q15 -20 39 -20q30 0 61 20.5t53 56.5l28 46q4 6 12 20l13 21l-12 69l-77 391h77l68 -368l144 237l80 131h77l-286 -464l-27 -44q-5 -10 -19 -32t-20 -33q-33 -56 -86 -89t-102 -33q-23 0 -52 8z" />
<glyph unicode="z" horiz-adv-x="452" d="M34 0l13 63l354 366h-273l15 72h374l-13 -62l-354 -367h276l-15 -72h-377z" />
<glyph unicode="{" horiz-adv-x="223" d="M224 305l-49 -234h16l-15 -71q-29 0 -55 17.5t-21 43.5l49 226q2 11 -4 18.5t-16 7.5h-36l15 72h36q10 0 19.5 7.5t11.5 18.5l46 219q9 22 37.5 36.5t61.5 14.5l-15 -74q-3 0 -7.5 -0.5t-6.5 -1t-3 0.5l-44 -208q-23 -40 -50 -44l-2 -10q29 -10 32 -39z" />
<glyph unicode="|" horiz-adv-x="131" d="M40 1l149 704h57l-149 -704h-57z" />
<glyph unicode="}" horiz-adv-x="188" d="M47 71l49 232q16 36 47 42q1 4 3 10q-30 12 -30 41l45 211h-18l15 74q36 0 57 -14.5t21 -36.5l1 -8l-45 -211q-5 -26 16 -26h36l-15 -72h-36q-22 0 -27 -26l-49 -226q-5 -26 -37.5 -43.5t-65.5 -17.5l15 71h18z" />
<glyph unicode="~" horiz-adv-x="347" d="M277 273q-39 0 -63 15q-16 4 -28 4q-42 0 -84 -30l-18 60q56 34 114 34q16 0 49 -11l-1 1h4l3 -1q24 -8 34 -8q43 0 87 30l13 -60q-56 -34 -110 -34z" />
<glyph unicode="&#xa2;" horiz-adv-x="478" d="M323 503l14 66h76l-14 -66q74 -13 127 -86l-63 -53q-31 54 -79 66l-77 -363q51 15 105 63l41 -50q-86 -75 -162 -86l-13 -64h-76l13 65q-80 18 -124 90.5t-25 163.5q21 96 94.5 168.5t162.5 85.5zM137 249q-14 -66 12.5 -117.5t81.5 -64.5l77 363q-61 -13 -109 -64 t-62 -117z" />
<glyph unicode="&#xa3;" horiz-adv-x="556" d="M431 282h-171l-44 -211h316l-15 -71h-388l59 282h-113l16 72h113l69 327h72l-69 -327h171z" />
<glyph unicode="&#xa5;" horiz-adv-x="681" d="M185 139l16 73h137v4h-137l16 73h137l3 15l-127 239l-74 138h94l157 -306l292 306h93l-361 -377l-3 -15h137l-16 -73h-137v-4h137l-16 -73h-137l-29 -139h-74l29 139h-137z" />
<glyph unicode="&#xad;" d="M440 256h-356l15 72h356z" />
<glyph unicode="&#xb4;" horiz-adv-x="209" d="M347 632l-166 -113h-58l109 113h115z" />
<glyph unicode="&#x2000;" horiz-adv-x="362" />
<glyph unicode="&#x2001;" horiz-adv-x="724" />
<glyph unicode="&#x2002;" horiz-adv-x="362" />
<glyph unicode="&#x2003;" horiz-adv-x="724" />
<glyph unicode="&#x2004;" horiz-adv-x="241" />
<glyph unicode="&#x2005;" horiz-adv-x="181" />
<glyph unicode="&#x2006;" horiz-adv-x="120" />
<glyph unicode="&#x2007;" horiz-adv-x="120" />
<glyph unicode="&#x2008;" horiz-adv-x="90" />
<glyph unicode="&#x2009;" horiz-adv-x="144" />
<glyph unicode="&#x200a;" horiz-adv-x="40" />
<glyph unicode="&#x2010;" d="M440 256h-356l15 72h356z" />
<glyph unicode="&#x2011;" d="M440 256h-356l15 72h356z" />
<glyph unicode="&#x2013;" horiz-adv-x="416" d="M440 256h-356l15 72h356z" />
<glyph unicode="&#x2014;" horiz-adv-x="532" d="M549 256h-463l15 72h463z" />
<glyph unicode="&#x2018;" horiz-adv-x="150" d="M218 591l16 -63l-77 -31l-18 76l76 112l30 -16z" />
<glyph unicode="&#x2019;" horiz-adv-x="159" d="M177 604l7 71l78 6l-8 -80l-105 -92l-20 25z" />
<glyph unicode="&#x201c;" horiz-adv-x="218" d="M318 675l-24 -71q2 -10 6 -27t7 -27q1 -1 2.5 -8.5t1.5 -8.5l-28 -24l-67 92l25 80zM249 675l-24 -71l14 -54q0 -8 3 -17l-28 -24l-67 92l26 80z" />
<glyph unicode="&#x201d;" horiz-adv-x="237" d="M178 604l6 71l79 6l-9 -80l-105 -92l-19 25zM247 604l6 71l78 6l-8 -80l-105 -92l-19 25z" />
<glyph unicode="&#x2022;" horiz-adv-x="209" d="M108 376q7 30 34.5 52.5t56.5 22.5t47.5 -22.5t11.5 -52.5q-5 -28 -33 -50t-57 -22t-47 22t-13 50z" />
<glyph unicode="&#x2026;" horiz-adv-x="435" d="M31 0l19 93h92l-19 -93h-92zM167 0l19 93h92l-19 -93h-92zM303 0l19 93h92l-19 -93h-92z" />
<glyph unicode="&#x202f;" horiz-adv-x="144" />
<glyph unicode="&#x205f;" horiz-adv-x="181" />
<glyph unicode="&#x20ac;" horiz-adv-x="745" d="M686 170l39 -58q-139 -121 -277 -121q-113 0 -184 71t-75 183h-103l15 72h91q0 7 4 19q6 26 10 36v2h-93l15 72h107q55 106 154.5 172.5t205.5 66.5q136 0 226 -121l-62 -52q-71 99 -180 99q-75 0 -149 -46.5t-118 -118.5h314l-15 -72h-332q-5 -11 -10 -38q-2 -6 -2 -14 l-1 -5h333l-15 -72h-317q11 -78 65 -129t131 -51q110 0 223 105z" />
<glyph unicode="&#x2122;" horiz-adv-x="417" d="M267 613l-35 -163h-62l35 163h-56l13 60h173l-13 -60h-55zM456 673h49l-48 -223h-61l19 89q-8 -13 -20 -27h-35l-8 22l-18 -84h-62l48 223h50l27 -71l27 33q6 5 13 16q15 18 19 22z" />
<glyph horiz-adv-x="257" />
</font>
</defs>
</svg>
