<?xml version="1.0" standalone="no"?>
<!DOCTYPE svg PUBLIC "-//W3C//DTD SVG 1.1//EN" "http://www.w3.org/Graphics/SVG/1.1/DTD/svg11.dtd" >
<svg xmlns="http://www.w3.org/2000/svg">
<metadata>
This is a custom SVG webfont generated by Font Squirrel.
Designer    : La Tipomatika (Digital Type Foundry)
Foundry     : La Tipomatika
</metadata>
<defs>
<font id="webfontDhK4OywI" horiz-adv-x="421" >
<font-face units-per-em="1000" ascent="800" descent="-200" />
<missing-glyph horiz-adv-x="257" />
<glyph unicode=" "  horiz-adv-x="257" />
<glyph unicode="&#x09;" horiz-adv-x="257" />
<glyph unicode="&#xa0;" horiz-adv-x="257" />
<glyph unicode="!" horiz-adv-x="176" d="M113 22v-1q-2 -12 -12.5 -21t-22.5 -9q-13 0 -19.5 9t-4.5 21q3 13 13 21.5t23 8.5t19 -8.5t4 -20.5zM76 96l125 590h48l-125 -590h-48z" />
<glyph unicode="&#x22;" horiz-adv-x="217" d="M156 543l20 143h59l-6 -69l-61 -89zM229 543l20 143h59l-6 -69l-61 -89z" />
<glyph unicode="#" horiz-adv-x="714" d="M68 215l58 56h100l74 126h-194l57 56h168l111 187h58l-108 -187h218l110 187h58l-108 -187h118l-57 -56h-92l-75 -126h186l-59 -56h-160l-122 -215h-60l124 215h-220l-123 -215h-59l124 215h-127zM360 397l-74 -126h219l73 126h-218z" />
<glyph unicode="$" horiz-adv-x="466" d="M282 372l55 260q-52 -12 -92 -47t-50 -79q-10 -45 14.5 -83t72.5 -51zM322 308l-55 -259q52 8 93 42t51 81q11 48 -14.5 86.5t-74.5 49.5zM358 731h54l-9 -42q101 -3 155 -82l-52 -35q-37 60 -114 65l-59 -276q73 -17 111.5 -68t24.5 -118q-15 -69 -76 -119.5t-138 -61.5 l-12 -58h-54l12 56h-5q-51 5 -89.5 31.5t-57.5 66.5l51 35q15 -31 45 -54t67 -25l57 269q-73 16 -109.5 67.5t-22.5 119.5q15 69 74 119.5t137 64.5z" />
<glyph unicode="&#x26;" horiz-adv-x="597" d="M245 0q-89 0 -136.5 56t-30.5 134q26 122 198 193q4 2 9.5 4t9.5 4q-2 2 -8 14q-37 50 -45 81t-1 62q12 57 65.5 99.5t122.5 42.5q65 0 98.5 -39.5t21.5 -96.5q-18 -88 -158 -157l-17 -8l110 -187q2 2 13 19q30 40 51 87l59 -13q-49 -92 -90 -138q0 -2 -6 -16 q13 -30 21 -42.5t29 -32.5l-14 -65q-36 25 -67 76q-4 8 -5 9l-9 15q-6 -6 -14 -12q-98 -91 -207 -89zM512 137l-1 4v-1zM488 553q8 40 -12 67t-61 27q-38 0 -71 -26.5t-41 -64.5q-8 -41 19 -80l34 -53l10 5h-1q62 32 88.5 59.5t34.5 65.5zM314 358l-12 -7 q-140 -72 -158 -156q-12 -55 19.5 -100.5t91.5 -45.5q42 -1 91 24.5t84 65.5v-1q3 6 8 9z" />
<glyph unicode="'" horiz-adv-x="121" d="M178 614l6 67l61 5l-7 -70l-96 -84l-11 14z" />
<glyph unicode="(" horiz-adv-x="260" d="M306 696l11 -61q-47 -46 -89 -140t-66 -207q-27 -126 -21.5 -223.5t39.5 -138.5l-43 -53q-44 54 -54 164.5t19 250.5q27 130 83.5 241t120.5 167z" />
<glyph unicode=")" horiz-adv-x="246" d="M198 635l36 61q41 -56 50.5 -165.5t-17.5 -242.5q-29 -136 -87 -248.5t-124 -166.5l-22 53q51 41 98.5 139.5t74.5 222.5q24 114 21.5 207.5t-30.5 139.5z" />
<glyph unicode="*" horiz-adv-x="471" d="M364 487l-23 -110h-54l23 108l-93 -75l-31 37l94 78h-108l12 54h108l-61 77l46 39l61 -77l23 109h54l-23 -109l93 77l31 -38l-93 -77h109l-12 -55h-110l62 -78l-46 -37z" />
<glyph unicode="+" horiz-adv-x="452" d="M308 266l-31 -148h-54l31 148h-147l12 54h147l31 147h54l-31 -147h148l-12 -54h-148z" />
<glyph unicode="," horiz-adv-x="173" d="M71 9l15 67h60l-16 -72l-104 -75l-7 17z" />
<glyph unicode="-" d="M442 266h-349l12 54h349z" />
<glyph unicode="." horiz-adv-x="145" d="M36 0l16 76h76l-16 -76h-76z" />
<glyph unicode="/" horiz-adv-x="378" d="M491 686l-395 -686h-59l396 686h58z" />
<glyph unicode="0" horiz-adv-x="586" d="M166 341q-26 -123 14 -209t122 -86q83 0 159 86t102 209q26 122 -13.5 208t-122.5 86q-82 0 -158.5 -86t-102.5 -208zM111 341q31 144 127.5 246.5t200.5 102.5q105 0 157 -102t21 -247t-126 -247.5t-200 -102.5q-104 0 -157.5 103t-22.5 247z" />
<glyph unicode="1" horiz-adv-x="263" d="M180 541l-30 37l153 108h50l-145 -686h-55l130 613z" />
<glyph unicode="2" horiz-adv-x="475" d="M443 330l-303 -276h303l-11 -54h-380l10 50l353 319q51 46 63 106q15 67 -23.5 113.5t-107.5 46.5q-65 0 -128 -50l-31 39q90 66 171 66q91 0 142 -63t31 -152q-18 -85 -89 -145z" />
<glyph unicode="3" horiz-adv-x="431" d="M32 65l46 38q43 -60 118 -60q64 0 119 41.5t68 100.5q10 48 -25.5 87.5t-90.5 50.5h-96l12 54h97q62 4 112 41.5t61 87.5q12 54 -26 92t-102 38q-83 0 -145 -57l-30 40q82 71 186 71q88 0 139.5 -54t35.5 -130q-10 -49 -48.5 -91t-91.5 -66q41 -26 59.5 -69.5t7.5 -94.5 q-17 -82 -91.5 -139t-162.5 -57q-100 0 -152 76z" />
<glyph unicode="4" horiz-adv-x="473" d="M332 247h-247l13 50l309 391l41 -26l-284 -360h180l31 149h55l-31 -149h96l-12 -55h-96l-52 -247h-55z" />
<glyph unicode="5" horiz-adv-x="504" d="M169 342h-52l97 344h372l-11 -55h-319q-5 -14 -26 -82l-34 -108q68 54 154 54q93 0 142.5 -72t27.5 -174q-22 -103 -102 -176t-173 -73q-53 0 -95.5 28t-63.5 75l48 39q15 -41 47 -64.5t75 -23.5q70 0 131 57t78 138t-20 137t-107 56q-48 0 -93.5 -27.5t-75.5 -72.5z" />
<glyph unicode="6" horiz-adv-x="506" d="M515 208l-2 -9q-19 -87 -92.5 -147t-161.5 -60q-83 0 -130.5 58.5t-33.5 145.5v-1q6 51 25 135l4 21q19 91 47 160q30 75 99 126.5t146 53.5q112 0 164 -94l-59 -32q-17 33 -47.5 52t-67.5 19q-58 0 -112 -40t-76 -100q-30 -76 -46 -157l-2 -8q73 74 173 79 q87 0 138.5 -57.5t33.5 -144.5zM461 206q11 64 -25 107t-100 43t-118.5 -47.5t-68.5 -112.5q-13 -62 23.5 -106.5t99.5 -44.5q64 0 119 45t68 107z" />
<glyph unicode="7" horiz-adv-x="443" d="M36 0l428 631h-268l11 55h357l-465 -686h-63z" />
<glyph unicode="8" horiz-adv-x="459" d="M69 193q11 54 50 102t90 75q-70 49 -50 145q15 72 78.5 123.5t137.5 51.5q76 0 118 -51.5t27 -123.5q-20 -98 -112 -145q42 -27 59.5 -74t5.5 -103q-18 -84 -89.5 -143t-156.5 -59q-83 0 -129.5 59.5t-28.5 142.5zM213 515q-10 -49 19 -84.5t80 -35.5q52 0 96.5 35 t55.5 85q10 50 -19 85t-82 35q-51 0 -95.5 -35t-54.5 -85zM124 193q-13 -59 21 -103t93 -44q62 0 115 43.5t66 103.5q13 61 -21.5 104.5t-96.5 43.5q-59 0 -111.5 -43.5t-65.5 -104.5z" />
<glyph unicode="9" horiz-adv-x="489" d="M135 475l2 7q18 86 92 147.5t161 61.5q83 0 131 -60.5t37 -145.5q-8 -54 -27 -137l-5 -26q-18 -85 -44 -150q-31 -79 -104 -129t-154 -50q-48 0 -88.5 24t-64.5 64l58 41q37 -73 114 -73q61 0 113.5 38.5t78.5 97.5q26 73 43 153l3 12q-82 -75 -181 -75q-83 0 -132 58.5 t-33 141.5zM188 477q-10 -62 26 -105t97 -43q66 0 122 45t69 110q13 61 -24.5 106t-98.5 45q-66 0 -121.5 -47t-69.5 -111z" />
<glyph unicode=":" horiz-adv-x="182" d="M144 424l16 76h76l-16 -76h-76zM54 0l16 76h76l-16 -76h-76z" />
<glyph unicode=";" horiz-adv-x="169" d="M144 424l16 76h75l-16 -76h-75zM60 9l15 67h61l-16 -72l-105 -75l-7 17z" />
<glyph unicode="&#x3c;" horiz-adv-x="330" d="M73 248l299 249l32 -38l-254 -211l165 -206l-47 -40z" />
<glyph unicode="=" horiz-adv-x="440" d="M146 383l12 57h339l-12 -57h-339zM106 195l12 56h339l-12 -56h-339z" />
<glyph unicode="&#x3e;" horiz-adv-x="336" d="M175 497l194 -249l-299 -246l-31 40l253 206l-164 211z" />
<glyph unicode="?" horiz-adv-x="410" d="M238 0h-58l-23 317l10 49h99q55 1 100 39.5t57 93.5q12 57 -18 97t-84 40q-72 0 -132 -75l-31 39q77 90 174 90q76 0 118.5 -56t25.5 -135q-17 -76 -81.5 -131.5t-139.5 -55.5h-43zM178 -87q3 14 15 23.5t25 9.5q32 0 25 -33q-3 -15 -13.5 -25t-25.5 -10q-13 0 -21 10.5 t-5 24.5z" />
<glyph unicode="@" horiz-adv-x="754" d="M543 194q22 0 60.5 27.5t65.5 65.5q14 21 29.5 59.5t21.5 64.5q19 89 -35.5 152t-160.5 63q-121 0 -220 -84.5t-126 -211.5q-27 -125 35 -195t201 -70q82 0 151 30t111 77h75l-9 -15q-50 -66 -140.5 -111t-199.5 -45q-161 0 -241 84t-47 239q33 158 152 262t274 104 q125 0 197.5 -76t45.5 -204q-20 -95 -95.5 -178.5t-162.5 -94.5q-56 3 -69 25q-43 -28 -87 -28q-54 0 -83.5 39t-18.5 95q12 56 59.5 94t103.5 38h71q17 95 -19 95q-38 0 -67 -10l-14 -1l-2 57l13 1q35 11 83 11q81 -3 61 -141h2q-18 -76 -33 -146q-2 -10 -6 -23 q-9 -19 -5.5 -34t29.5 -15zM478 268l17 79h-77q-36 0 -66 -22.5t-37 -56.5t12 -57.5t53 -23.5q33 0 62 23.5t36 57.5z" />
<glyph unicode="A" horiz-adv-x="596" d="M278 336h189l-41 254zM25 0l400 691h45l108 -691h-57l-46 281h-229l-164 -281h-57z" />
<glyph unicode="B" horiz-adv-x="512" d="M273 2l-18 -2h-206l146 691h223q77 -1 120.5 -52.5t29.5 -120.5q-10 -47 -43 -86.5t-78 -64.5q42 -25 60 -70.5t7 -97.5q-17 -80 -87.5 -138t-154.5 -59h1zM407 638h-168l-52 -243h168q56 2 101.5 36.5t56.5 86.5q10 47 -21 82t-85 38zM283 55q61 3 112.5 45t63.5 99 q11 55 -22 96t-93 45h-168l-61 -285h168z" />
<glyph unicode="C" horiz-adv-x="590" d="M686 594l-46 -37q-62 83 -164 83q-106 0 -201 -86.5t-121 -208.5q-26 -123 29.5 -210.5t165.5 -87.5q98 0 198 82l30 -37q-117 -101 -239 -101q-126 0 -198 105t-42 249q30 141 144.5 245.5t244.5 104.5q61 0 113 -27t86 -74z" />
<glyph unicode="D" horiz-adv-x="575" d="M425 636h-202l-124 -581q34 0 103 1t102 1q77 2 149.5 87t97.5 203q15 81 5.5 145t-45 103.5t-86.5 40.5zM33 0l146 691h257q101 -1 150.5 -101.5t19.5 -242.5t-121 -242.5t-193 -104.5h-259z" />
<glyph unicode="E" horiz-adv-x="485" d="M476 395l-11 -55h-298l-61 -285h349l-11 -55h-404l146 691h404l-11 -53h-349l-52 -243h298z" />
<glyph unicode="F" horiz-adv-x="487" d="M480 395l-11 -55h-298l-72 -340h-55l146 691h404l-11 -52h-349l-52 -244h298z" />
<glyph unicode="G" horiz-adv-x="604" d="M575 93l-3 -8q-112 -94 -236 -94q-86 0 -148.5 47t-88 128t-5.5 176q31 146 146 249.5t245 103.5q125 0 200 -101l-46 -38q-62 83 -166 83q-108 0 -203.5 -86.5t-121.5 -210.5q-26 -123 32.5 -210.5t166.5 -87.5q91 0 177 66l39 184h-187l11 53h242z" />
<glyph unicode="H" horiz-adv-x="558" d="M532 340h-360l-72 -340h-55l146 691h55l-63 -296h360l63 296h54l-146 -691h-54z" />
<glyph unicode="I" horiz-adv-x="138" d="M244 691l-146 -691h-55l146 691h55z" />
<glyph unicode="J" horiz-adv-x="305" d="M394 691l-110 -519q-16 -74 -66.5 -127.5t-104.5 -53.5q-46 0 -79 48l44 38q21 -31 46 -31q32 0 62 35.5t42 88.5l110 521h56z" />
<glyph unicode="K" horiz-adv-x="583" d="M186 691h55l-76 -357l382 357h73l-322 -301l251 -390h-71l-225 348l-105 -98l-53 -250h-55z" />
<glyph unicode="L" horiz-adv-x="453" d="M240 691l-135 -636h331l-11 -55h-385l146 691h54z" />
<glyph unicode="M" horiz-adv-x="623" d="M371 320l294 371h53l-146 -691h-56l122 578l-268 -338h-34l-129 338l-122 -578h-55l146 691h52z" />
<glyph unicode="N" horiz-adv-x="537" d="M189 691h51l218 -576l122 576h55l-146 -691h-52l-217 579l-123 -579h-54z" />
<glyph unicode="O" horiz-adv-x="690" d="M638 561q-55 78 -162 78q-108 0 -201.5 -85.5t-119.5 -208.5q-26 -125 30 -211.5t165 -86.5q111 0 205 86.5t120 211.5q27 131 -37 216zM577 88q-110 -97 -238 -97q-129 0 -200.5 102.5t-39.5 251.5q31 145 144.5 247.5t244.5 102.5q134 0 202.5 -101.5t37.5 -248.5 q-33 -156 -151 -257z" />
<glyph unicode="P" horiz-adv-x="480" d="M322 339h-147l-72 -339h-54l146 691h201q82 0 129.5 -51t32.5 -122q-17 -75 -85.5 -127t-150.5 -52zM383 638h-145l-52 -244h147q59 0 109 35.5t61 88.5q10 49 -25 84.5t-95 35.5z" />
<glyph unicode="Q" horiz-adv-x="665" d="M608 571q-54 75 -146 75q-99 0 -187 -81.5t-112 -196.5q-24 -111 25 -191.5t145 -85.5q-6 29 -38 28l10 49q37 1 60 -20t23 -53q88 20 161 96.5t94 176.5q26 121 -35 203zM553 132q-78 -69 -174 -86q-1 -26 6 -43t19 -17q16 0 34 27l32 -34q-45 -45 -78 -45q-31 0 -49 31 t-16 77q-115 7 -179 101t-36 225q29 138 135 232.5t225 94.5q120 0 186.5 -95t37.5 -232q-30 -140 -143 -236z" />
<glyph unicode="R" horiz-adv-x="474" d="M386 0l-222 330l-70 -330h-55l146 691h201q83 0 130.5 -50.5t31.5 -123.5q-15 -73 -84 -125t-152 -52h-83l228 -340h-71zM373 639h-144l-52 -244h146q59 0 109.5 35.5t60.5 86.5q11 50 -24.5 86t-95.5 36z" />
<glyph unicode="S" horiz-adv-x="485" d="M58 91l51 35q36 -80 135 -80q61 0 114 37t64 90q11 51 -22 91.5t-93 49.5q-83 10 -129 65t-31 128q17 80 91 133.5t164 53.5q112 0 169 -82l-53 -36q-39 66 -127 66q-62 0 -118 -38.5t-68 -92.5q-11 -55 23 -96.5t97 -46.5q82 -11 126 -66t29 -126q-16 -77 -89 -131 t-160 -54q-61 0 -106.5 27.5t-66.5 72.5z" />
<glyph unicode="T" horiz-adv-x="575" d="M670 638h-220l-135 -638h-55l135 638h-222l11 53h497z" />
<glyph unicode="U" horiz-adv-x="598" d="M243 691l-109 -515q-5 -52 45.5 -90.5t128.5 -38.5q75 0 141 38.5t84 90.5l109 515h55l-109 -515q-20 -76 -105.5 -130.5t-185.5 -54.5q-104 0 -168 54.5t-53 130.5l109 515h58z" />
<glyph unicode="V" horiz-adv-x="639" d="M291 0l-108 691h57l96 -603l351 603h58l-401 -691h-53z" />
<glyph unicode="W" horiz-adv-x="915" d="M1007 691l-400 -691h-55l-44 274l-158 -274h-54l-109 691h58l96 -604l155 270l-51 334h57l43 -274l25 -151l28 -178l350 603h59z" />
<glyph unicode="X" horiz-adv-x="541" d="M310 353l-126 338h62l111 -288l232 288h63l-274 -344l128 -347h-63l-114 298l-238 -298h-62z" />
<glyph unicode="Y" horiz-adv-x="681" d="M723 691h72l-364 -380l-66 -311h-56l66 311l-204 380h73l169 -326z" />
<glyph unicode="Z" horiz-adv-x="548" d="M665 691l-530 -636h355l-11 -55h-455l532 636h-362l11 55h460z" />
<glyph unicode="[" horiz-adv-x="210" d="M165 53q0 1 17 1l-11 -54q-24 0 -45 15.5t-16 37.5l50 235q3 16 -5 26.5t-23 10.5h-27l11 54h27q15 0 28 11t16 26l48 225q7 20 30.5 32.5t50.5 12.5l-12 -56q-16 0 -16 3l-49 -230q-20 -34 -50 -37l-5 -27q31 -5 34 -36z" />
<glyph unicode="\" horiz-adv-x="371" d="M287 0l-105 686h58l106 -686h-59z" />
<glyph unicode="]" horiz-adv-x="183" d="M53 56l53 246q15 35 47 37q1 6 7 27q-31 7 -33 37l48 227h-19l12 56q29 0 46 -13t17 -32v-6l-46 -219q-3 -16 3.5 -26.5t21.5 -10.5h27l-11 -54h-27q-15 0 -26.5 -10.5t-14.5 -26.5l-50 -235q-5 -22 -32 -37.5t-53 -15.5l11 54q13 0 19 2z" />
<glyph unicode="^" horiz-adv-x="551" d="M119 443l301 246l193 -247l-48 -39l-161 209l-256 -209z" />
<glyph unicode="_" horiz-adv-x="513" d="M460 0h-423l11 54h423z" />
<glyph unicode="`" horiz-adv-x="204" d="M251 538l-102 98h87l52 -98h-37z" />
<glyph unicode="a" horiz-adv-x="406" d="M310 0l6 30q-57 -40 -120 -40q-67 0 -105 45t-25 109q14 66 73.5 110.5t129.5 44.5h104l3 14q12 57 -6.5 97t-61.5 41q-63 0 -121 -16l-2 52q70 19 136 19q60 -1 92.5 -51.5t21.5 -121.5l-2 -10q-20 -84 -37 -164q-29 -143 -17 -159h-69zM340 144l22 101h-104 q-48 0 -87.5 -28.5t-49.5 -72.5q-9 -41 16.5 -69.5t70.5 -28.5q46 0 84.5 28.5t47.5 69.5z" />
<glyph unicode="b" horiz-adv-x="523" d="M194 404l-65 -306q-4 -21 33.5 -36t95.5 -17q76 2 144 61.5t85 142.5q17 81 -25.5 141.5t-117.5 60.5q-52 0 -95.5 -14t-54.5 -33zM113 23l-4 -23h-68q15 17 36 98l125 588h55l-45 -211q62 31 144 31q99 0 153.5 -76t31.5 -181q-22 -106 -108 -181.5t-187 -77.5 q-89 5 -133 33z" />
<glyph unicode="c" horiz-adv-x="478" d="M525 423l-47 -40q-43 68 -124 68q-77 0 -143.5 -59t-84.5 -144q-17 -83 24.5 -142.5t117.5 -59.5q78 0 149 65l32 -38q-97 -82 -192 -82q-98 0 -152.5 76t-32.5 181q22 106 109 182t185 76q101 0 159 -83z" />
<glyph unicode="d" horiz-adv-x="534" d="M299 47q57 3 100 18.5t47 34.5l65 305q-2 19 -38 32.5t-90 13.5q-78 -2 -145 -60.5t-84 -138.5q-17 -83 24.5 -142.5t120.5 -62.5zM425 3l5 22q-61 -27 -144 -32q-99 2 -153 77.5t-32 181.5q22 105 108.5 179t185.5 75q85 0 130 -32l45 212h54l-124 -586q-1 -3 -2 -9 t-3 -20.5t-3 -27t0.5 -24.5t5.5 -16h-73z" />
<glyph unicode="e" horiz-adv-x="456" d="M246 45q54 0 137 38l11 -48q-63 -31 -133 -43q-8 -1 -26 -1q-83 0 -130 69.5t-31 170.5l3 18q23 107 98.5 182.5t157.5 75.5q84 0 125.5 -73t18.5 -180l-6 -30h-343q-11 -77 22.5 -127.5t95.5 -51.5zM140 277h289q10 75 -21 124.5t-87 49.5q-53 0 -104 -50t-77 -124z" />
<glyph unicode="f" horiz-adv-x="328" d="M455 687l-28 -55q-16 4 -39 4q-41 -2 -76.5 -39t-46.5 -89l-4 -19h128l-11 -55h-128l-92 -434h-52l92 434h-73l11 55h72l3 18l3 12q19 70 73 120.5t112 50.5q32 0 56 -3z" />
<glyph unicode="g" horiz-adv-x="551" d="M234 126q8 2 25 2q85 0 134 -46.5t35 -113.5t-84 -115t-154 -48q-82 0 -131 48t-35 115q9 42 44 79t83 58q-3 14 2 43q6 32 27 51q-58 50 -40 132q15 72 84.5 123.5t152.5 51.5q35 0 73 -11h182l-64 -54h-47q33 -50 20 -110q-16 -73 -85 -123t-153 -50q-21 0 -47 6 q-18 5 -30 5q-25 0 -30 -19q-5 -25 23 -25q1 0 5 0.5t5 0.5h5zM77 -32q-10 -44 27.5 -77t96.5 -33q63 0 114 32.5t61 77.5q9 44 -28 77t-100 33q-59 0 -110.5 -33t-60.5 -77zM194 331q-11 -50 24.5 -85.5t95.5 -35.5q63 0 113.5 35.5t61.5 85.5q11 52 -24.5 87t-98.5 35 q-60 0 -110.5 -35.5t-61.5 -86.5z" />
<glyph unicode="h" horiz-adv-x="455" d="M188 688h54l-52 -242q66 61 142 61q71 0 108.5 -53.5t22.5 -130.5l-65 -320h-54l68 320q10 55 -18.5 92.5t-78.5 37.5q-42 0 -84.5 -34.5t-63.5 -81.5l-71 -337h-54z" />
<glyph unicode="i" horiz-adv-x="177" d="M59 0l106 500h53l-106 -500h-53zM186 639q3 14 15 23.5t27 9.5q14 0 22.5 -10t5.5 -23q-2 -13 -15 -23t-27 -10q-15 0 -22.5 10t-5.5 23z" />
<glyph unicode="j" horiz-adv-x="354" d="M321 634q8 33 41 33q12 0 20.5 -9.5t4.5 -23.5q-3 -13 -15 -23t-24 -10q-15 0 -22.5 9.5t-4.5 23.5zM5 -189l16 52q16 0 30 -2q5 -1 13 -1l1 3q42 0 79 36t48 87l109 515h54l-111 -524q-20 -70 -72.5 -119t-113.5 -51q-11 0 -31 2q-12 2 -22 2z" />
<glyph unicode="k" horiz-adv-x="440" d="M256 686l-72 -340l208 148h84l-186 -131l131 -363h-64l-117 327q-63 -47 -71 -52l-58 -275h-69q18 15 25 51l135 635h54z" />
<glyph unicode="l" horiz-adv-x="162" d="M59 0l145 686h54l-145 -686h-54z" />
<glyph unicode="m" horiz-adv-x="739" d="M199 500l-12 -56q64 61 140 61q47 0 81.5 -27t48.5 -70q32 49 79 74t92 25q70 0 107.5 -53t23.5 -131l-66 -321h-55l68 321q10 54 -17 91.5t-76 37.5q-45 0 -87.5 -34t-61.5 -81l-71 -335h-54l68 319q10 55 -18 92t-79 37q-42 0 -84 -34t-62 -81l-71 -335h-54l94 446 q3 15 2 32t-5 22h69z" />
<glyph unicode="n" horiz-adv-x="433" d="M194 496l-11 -50q65 62 142 62q70 0 108 -53.5t24 -131.5l-66 -323h-55l68 323q11 55 -17 92.5t-78 37.5q-43 0 -85.5 -34t-63.5 -82l-71 -337h-54l95 448q7 34 -5 48h69z" />
<glyph unicode="o" horiz-adv-x="513" d="M126 247q-18 -83 22 -142.5t115 -59.5q73 0 138 59.5t83 142.5q18 85 -21.5 144.5t-113.5 59.5q-75 0 -140 -59.5t-83 -144.5zM71 247q22 107 107.5 183t182.5 76t149 -76t29 -183q-23 -106 -107 -181.5t-181 -75.5t-150 75.5t-30 181.5z" />
<glyph unicode="p" horiz-adv-x="506" d="M175 404l-66 -311q1 -18 38.5 -31.5t90.5 -15.5q78 2 145.5 62t85.5 144q18 83 -24.5 142t-119.5 59q-58 0 -101.5 -14.5t-48.5 -34.5zM196 499l-5 -23q72 33 146 33q100 -2 154 -77t32 -180q-23 -108 -109.5 -184t-186.5 -76q-85 0 -131 32l-46 -214h-53l125 594 q2 9 3.5 21t4 42t-4.5 32h71z" />
<glyph unicode="q" horiz-adv-x="513" d="M502 477l4 17h53l-146 -684h-53l49 232q-57 -32 -141 -32q-95 2 -148 74.5t-32 173.5q22 102 106 175t179 73q85 0 129 -29zM424 109l62 295q5 20 -31.5 34.5t-92.5 14.5q-74 0 -139 -57t-82 -138q-17 -80 23.5 -137t114.5 -59q51 0 92.5 14t52.5 33z" />
<glyph unicode="r" horiz-adv-x="279" d="M360 501l-25 -54q-13 4 -23 4q-43 0 -85 -34t-62 -82l-71 -335h-54l94 446q4 15 1.5 31.5t-11.5 23.5h76l-12 -57q62 62 141 62q19 0 31 -5z" />
<glyph unicode="s" horiz-adv-x="417" d="M470 437l-50 -32q-37 45 -113 45q-47 0 -83 -21.5t-43 -54.5t20 -61t75 -35q66 -10 101.5 -53.5t23.5 -97.5q-13 -59 -68.5 -97t-124.5 -38q-47 0 -88 19t-61 52l48 32q39 -49 109 -49q48 0 86 23t45 58q7 32 -20.5 61t-71.5 39q-64 10 -102 54t-27 94q12 57 69.5 93.5 t127.5 36.5q46 0 85.5 -18.5t61.5 -49.5z" />
<glyph unicode="t" horiz-adv-x="340" d="M263 686h55l-41 -193h131l-11 -55h-131l-93 -438h-53l93 438h-74l11 55h72z" />
<glyph unicode="u" horiz-adv-x="450" d="M343 0l11 53q-67 -62 -141 -62q-69 0 -106.5 53.5t-23.5 130.5l-2 4l67 319h54l-67 -316v-5q-9 -53 19 -91.5t77 -38.5q44 0 85.5 34.5t60.5 81.5l72 337h54l-95 -446q-3 -17 -1.5 -33t5.5 -21h-69z" />
<glyph unicode="v" horiz-adv-x="500" d="M219 0l-95 500h57l82 -418l258 418h60l-310 -500h-52z" />
<glyph unicode="w" horiz-adv-x="705" d="M778 500l-310 -500l-53 3l-33 179l-115 -182l-51 3l-96 497h58l81 -417l107 173q-7 41 -23 124l-23 120h62l78 -417l258 417h60z" />
<glyph unicode="x" horiz-adv-x="444" d="M235 259l-102 241h68l80 -194l165 194h67l-209 -249l103 -251h-66l-85 203l-168 -203h-66z" />
<glyph unicode="y" horiz-adv-x="535" d="M7 -189l20 56q7 -8 36 -8q34 0 69 22.5t59 63.5l58 94l-91 467h58l74 -398l243 398h58l-289 -468l1 1q-7 -13 -31 -52.5t-36 -61.5q-33 -55 -85.5 -87.5t-101.5 -32.5q-23 0 -42 6z" />
<glyph unicode="z" horiz-adv-x="452" d="M41 0l11 52l379 393h-293l12 55h368l-11 -52l-380 -393h296l-11 -55h-371z" />
<glyph unicode="{" horiz-adv-x="223" d="M165 53q0 1 17 1l-11 -54q-24 0 -45 15.5t-16 37.5l50 235q3 16 -5 26.5t-23 10.5h-27l11 54h27q15 0 28 11t16 26l48 225q7 20 30.5 32.5t50.5 12.5l-12 -56q-16 0 -16 3l-49 -230q-20 -34 -50 -37l-5 -27q31 -5 34 -36z" />
<glyph unicode="|" horiz-adv-x="131" d="M50 1l151 710h39l-151 -710h-39z" />
<glyph unicode="}" horiz-adv-x="188" d="M53 56l53 246q15 35 47 37q1 6 7 27q-31 7 -33 37l48 227h-19l12 56q29 0 46 -13t17 -32v-6l-46 -219q-3 -16 3.5 -26.5t21.5 -10.5h27l-11 -54h-27q-15 0 -26.5 -10.5t-14.5 -26.5l-50 -235q-5 -22 -32 -37.5t-53 -15.5l11 54q13 0 19 2z" />
<glyph unicode="~" horiz-adv-x="347" d="M224 298l1 -1q-18 6 -36 6q-47 0 -81 -25l-14 43q47 28 104 28q22 0 50 -10q29 -9 43 -9q50 0 84 25l10 -43q-49 -29 -101 -29q-38 0 -60 15z" />
<glyph unicode="&#xa2;" horiz-adv-x="478" d="M337 503l15 67h59l-15 -67q79 -10 129 -80l-47 -40q-34 56 -93 65l-85 -400q55 8 118 63l31 -38q-84 -70 -161 -80l-14 -66h-59l14 67q-86 11 -131.5 84t-25.5 170q21 97 97.5 170.5t167.5 84.5zM126 248q-16 -75 17 -132t98 -68l85 400q-69 -11 -126.5 -68t-73.5 -132z " />
<glyph unicode="&#xa3;" horiz-adv-x="556" d="M433 293h-178l-51 -239h328l-11 -54h-382l62 293h-117l11 54h117l72 339h54l-72 -339h178z" />
<glyph unicode="&#xa5;" horiz-adv-x="681" d="M196 144l12 56h142l5 24h-142l12 56h142l6 28l-202 378h73l166 -324l309 324h72l-362 -378l-6 -28h142l-12 -56h-142l-5 -24h142l-12 -56h-142l-30 -144h-56l30 144h-142z" />
<glyph unicode="&#xad;" d="M442 266h-349l12 54h349z" />
<glyph unicode="&#xb4;" horiz-adv-x="209" d="M326 636l-143 -98h-38l95 98h86z" />
<glyph unicode="&#x2000;" horiz-adv-x="365" />
<glyph unicode="&#x2001;" horiz-adv-x="731" />
<glyph unicode="&#x2002;" horiz-adv-x="365" />
<glyph unicode="&#x2003;" horiz-adv-x="731" />
<glyph unicode="&#x2004;" horiz-adv-x="243" />
<glyph unicode="&#x2005;" horiz-adv-x="182" />
<glyph unicode="&#x2006;" horiz-adv-x="121" />
<glyph unicode="&#x2007;" horiz-adv-x="121" />
<glyph unicode="&#x2008;" horiz-adv-x="91" />
<glyph unicode="&#x2009;" horiz-adv-x="146" />
<glyph unicode="&#x200a;" horiz-adv-x="40" />
<glyph unicode="&#x2010;" d="M442 266h-349l12 54h349z" />
<glyph unicode="&#x2011;" d="M442 266h-349l12 54h349z" />
<glyph unicode="&#x2013;" horiz-adv-x="416" d="M442 266h-349l12 54h349z" />
<glyph unicode="&#x2014;" horiz-adv-x="532" d="M554 266h-460l12 54h460z" />
<glyph unicode="&#x2018;" horiz-adv-x="150" d="M212 602l15 -59l-59 -25l-16 66l70 103l16 -9z" />
<glyph unicode="&#x2019;" horiz-adv-x="159" d="M189 614l7 67l61 5l-7 -70l-96 -84l-11 14z" />
<glyph unicode="&#x201c;" horiz-adv-x="218" d="M312 681l-22 -67q6 -24 18 -68l-16 -14l-62 84l23 70zM241 681l-22 -67q6 -24 18 -68l-16 -14l-62 84l23 70z" />
<glyph unicode="&#x201d;" horiz-adv-x="237" d="M190 614l6 67l61 5l-7 -70l-96 -84l-10 14zM261 614l6 67l61 5l-7 -70l-96 -84l-10 14z" />
<glyph unicode="&#x2022;" horiz-adv-x="209" d="M118 380q6 27 31 47.5t52 20.5q26 0 42.5 -20.5t10.5 -47.5q-5 -25 -30.5 -45t-51.5 -20q-27 0 -43 20t-11 45z" />
<glyph unicode="&#x2026;" horiz-adv-x="435" d="M320 0l16 76h76l-16 -76h-76zM179 0l16 76h76l-16 -76h-76zM38 0l16 76h76l-16 -76h-76z" />
<glyph unicode="&#x202f;" horiz-adv-x="146" />
<glyph unicode="&#x205f;" horiz-adv-x="182" />
<glyph unicode="&#x20ac;" horiz-adv-x="745" d="M699 150l30 -44q-132 -115 -271 -115q-115 0 -187.5 74t-74.5 189h-105l12 55h97q0 1 1 5t1 6q0 7 3 19q2 11 13 47v2h-98l12 55h109q54 109 155 178t210 69q138 0 223 -115l-48 -40q-70 99 -187 99q-86 0 -167.5 -53t-127.5 -138h330l-12 -55h-343q-10 -25 -14 -49 q-3 -7 -3 -17q-1 -4 -1.5 -7.5t-0.5 -5.5h345l-12 -55h-333q8 -89 67.5 -148t146.5 -59q119 0 230 103z" />
<glyph unicode="&#x2122;" horiz-adv-x="417" d="M264 636l-36 -169h-45l36 169h-58l9 42h160l-9 -42h-57zM471 678h35l-45 -211h-43l24 116l-17 -21q-10 -12 -16 -20t-9 -11h-24l-19 52l-24 -116h-44l45 211h36l33 -85q24 33 41 53q4 5 13.5 16t13.5 16z" />
<glyph horiz-adv-x="257" />
</font>
</defs>
</svg>
